M48
;Layer_Color=6321
;FILE_FORMAT=4:4
METRIC,LZ
;TYPE=PLATED
T1F00S00C0.7000
T2F00S00C0.8000
T3F00S00C0.9000
T4F00S00C1.0000
T6F00S00C1.1000
T7F00S00C3.5000
%
T01
X013385Y01180975
X01402
Y012032
Y01225425
X01360725Y012032
X013385Y01225425
X013131Y01333375
Y01409575
X0115435Y01434975
Y01358775
X010718Y01396875
Y01473075
T02
X0119725Y01473075
X0135275
X0138775
X0116225
T03
X011988Y01117475
X012242
X012496
X01275
X013004Y01498475
X012496
T04
X010464Y01142875
Y01168275
X010718
Y01142875
X011099Y01117475
X011353
Y01092075
X011099
X013385
X013639
X013893
X014147
X014401
Y01117475
X014147
X013893
X013639
X013385
X014782Y01142875
X015036
Y01168275
X014782
Y01193675
X015036
Y01219075
Y01244475
Y01269875
Y01295275
Y01320675
Y01346075
Y01371475
X014782
Y01346075
Y01320675
Y01295275
Y01269875
Y01244475
Y01219075
X010718
X010464
Y01244475
Y01269875
Y01295275
Y01320675
Y01346075
Y01371475
X010718
Y01346075
Y01320675
Y01295275
Y01269875
Y01244475
Y01193675
X010464
T06
X012115Y01307975
X012369
X012623
X012877
X013131
X013385
X013639
Y01434975
X013385
X013131
X012877
X012623
X012369
X012115
X011861
Y01307975
T07
X01125Y0104
X01425
X01125Y0164
X01425
M30
