G04*
G04 #@! TF.GenerationSoftware,Altium Limited,CircuitStudio,1.5.2 (30)*
G04*
G04 Layer_Color=15065295*
%FSLAX44Y44*%
%MOMM*%
G71*
G01*
G75*
%ADD18C,0.2540*%
%ADD31C,0.1524*%
%ADD32C,0.1270*%
%ADD33C,0.1500*%
%ADD34C,0.3000*%
G36*
X1382950Y1022225D02*
X1281350D01*
Y1041275D01*
X1382950D01*
Y1022225D01*
D02*
G37*
G36*
X1217850Y1650875D02*
X1167050D01*
Y1669925D01*
X1217850D01*
Y1650875D01*
D02*
G37*
G36*
X1275000Y1047625D02*
X1211500D01*
Y1066675D01*
X1275000D01*
Y1047625D01*
D02*
G37*
G36*
X1205150Y1022225D02*
X1167050D01*
Y1041275D01*
X1205150D01*
Y1022225D01*
D02*
G37*
G36*
Y1047625D02*
X1167050D01*
Y1066675D01*
X1205150D01*
Y1047625D01*
D02*
G37*
G36*
X1382950D02*
X1281350D01*
Y1066675D01*
X1382950D01*
Y1047625D01*
D02*
G37*
%LPC*%
G36*
X1353832Y1036723D02*
X1351510D01*
X1349364Y1033463D01*
X1347229Y1036723D01*
X1344897D01*
X1348208Y1031713D01*
X1345188Y1027110D01*
X1347438D01*
X1349354Y1029995D01*
X1351249Y1027110D01*
X1353519D01*
X1350500Y1031724D01*
X1353832Y1036723D01*
D02*
G37*
G36*
X1350447Y1062123D02*
X1348510D01*
Y1054135D01*
X1345678D01*
Y1052510D01*
X1353301D01*
Y1054135D01*
X1350447D01*
Y1062123D01*
D02*
G37*
G36*
X1322111D02*
X1320174D01*
Y1052510D01*
X1322111D01*
Y1062123D01*
D02*
G37*
G36*
X1341148Y1036723D02*
X1339096D01*
X1338294Y1034536D01*
X1334451D01*
X1333608Y1036723D01*
X1331494D01*
X1335347Y1027110D01*
X1337409D01*
X1341148Y1036723D01*
D02*
G37*
G36*
X1331452D02*
X1329130D01*
X1326985Y1033463D01*
X1324850Y1036723D01*
X1322517D01*
X1325829Y1031713D01*
X1322809Y1027110D01*
X1325058D01*
X1326974Y1029995D01*
X1328870Y1027110D01*
X1331140D01*
X1328120Y1031724D01*
X1331452Y1036723D01*
D02*
G37*
G36*
X1331983Y1062123D02*
X1329661D01*
X1327516Y1058863D01*
X1325381Y1062123D01*
X1323048D01*
X1326360Y1057113D01*
X1323340Y1052510D01*
X1325589D01*
X1327505Y1055395D01*
X1329401Y1052510D01*
X1331671D01*
X1328651Y1057124D01*
X1331983Y1062123D01*
D02*
G37*
G36*
X1341679D02*
X1339627D01*
X1338825Y1059936D01*
X1334983D01*
X1334139Y1062123D01*
X1332025D01*
X1335878Y1052510D01*
X1337940D01*
X1341679Y1062123D01*
D02*
G37*
G36*
X1314946Y1062300D02*
X1314634D01*
X1314415Y1062289D01*
X1314196Y1062268D01*
X1314009Y1062247D01*
X1313821Y1062216D01*
X1313644Y1062196D01*
X1313488Y1062164D01*
X1313342Y1062123D01*
X1313217Y1062091D01*
X1313103Y1062060D01*
X1312999Y1062039D01*
X1312915Y1062008D01*
X1312853Y1061987D01*
X1312811Y1061966D01*
X1312780Y1061956D01*
X1312769D01*
X1312467Y1061810D01*
X1312207Y1061644D01*
X1311989Y1061456D01*
X1311801Y1061289D01*
X1311655Y1061133D01*
X1311603Y1061060D01*
X1311551Y1060998D01*
X1311520Y1060956D01*
X1311489Y1060915D01*
X1311468Y1060894D01*
Y1060883D01*
X1311384Y1060748D01*
X1311312Y1060602D01*
X1311197Y1060331D01*
X1311114Y1060071D01*
X1311062Y1059831D01*
X1311041Y1059727D01*
X1311020Y1059634D01*
X1311010Y1059540D01*
Y1059467D01*
X1310999Y1059415D01*
Y1059363D01*
Y1059342D01*
Y1059332D01*
X1311020Y1059009D01*
X1311062Y1058707D01*
X1311124Y1058446D01*
X1311155Y1058332D01*
X1311187Y1058228D01*
X1311228Y1058134D01*
X1311259Y1058051D01*
X1311291Y1057978D01*
X1311322Y1057915D01*
X1311353Y1057863D01*
X1311364Y1057832D01*
X1311384Y1057811D01*
Y1057801D01*
X1311541Y1057582D01*
X1311718Y1057384D01*
X1311895Y1057218D01*
X1312061Y1057072D01*
X1312218Y1056968D01*
X1312343Y1056884D01*
X1312395Y1056863D01*
X1312426Y1056843D01*
X1312447Y1056822D01*
X1312457D01*
X1312592Y1056759D01*
X1312738Y1056686D01*
X1312905Y1056624D01*
X1313071Y1056562D01*
X1313415Y1056447D01*
X1313759Y1056343D01*
X1313915Y1056301D01*
X1314071Y1056260D01*
X1314196Y1056218D01*
X1314321Y1056187D01*
X1314415Y1056166D01*
X1314488Y1056145D01*
X1314530Y1056134D01*
X1314550D01*
X1314800Y1056072D01*
X1315029Y1056010D01*
X1315238Y1055947D01*
X1315425Y1055885D01*
X1315592Y1055833D01*
X1315737Y1055780D01*
X1315862Y1055728D01*
X1315967Y1055687D01*
X1316060Y1055645D01*
X1316144Y1055603D01*
X1316206Y1055572D01*
X1316248Y1055541D01*
X1316290Y1055520D01*
X1316310Y1055499D01*
X1316331Y1055489D01*
X1316425Y1055395D01*
X1316498Y1055301D01*
X1316539Y1055197D01*
X1316581Y1055104D01*
X1316602Y1055031D01*
X1316612Y1054958D01*
Y1054916D01*
Y1054906D01*
X1316602Y1054770D01*
X1316560Y1054656D01*
X1316519Y1054552D01*
X1316456Y1054468D01*
X1316404Y1054406D01*
X1316352Y1054354D01*
X1316321Y1054323D01*
X1316310Y1054312D01*
X1316112Y1054197D01*
X1315904Y1054104D01*
X1315675Y1054041D01*
X1315467Y1054000D01*
X1315269Y1053979D01*
X1315186Y1053968D01*
X1315113Y1053958D01*
X1314977D01*
X1314686Y1053968D01*
X1314436Y1054010D01*
X1314227Y1054062D01*
X1314050Y1054125D01*
X1313915Y1054187D01*
X1313821Y1054239D01*
X1313769Y1054281D01*
X1313748Y1054291D01*
X1313603Y1054427D01*
X1313488Y1054593D01*
X1313394Y1054770D01*
X1313322Y1054937D01*
X1313269Y1055093D01*
X1313249Y1055166D01*
X1313228Y1055229D01*
X1313217Y1055270D01*
Y1055312D01*
X1313207Y1055333D01*
Y1055343D01*
X1311270Y1055270D01*
X1311291Y1055031D01*
X1311322Y1054801D01*
X1311374Y1054583D01*
X1311447Y1054385D01*
X1311520Y1054197D01*
X1311603Y1054020D01*
X1311687Y1053864D01*
X1311770Y1053718D01*
X1311864Y1053594D01*
X1311947Y1053479D01*
X1312020Y1053375D01*
X1312093Y1053302D01*
X1312155Y1053239D01*
X1312197Y1053187D01*
X1312228Y1053167D01*
X1312238Y1053156D01*
X1312415Y1053010D01*
X1312613Y1052896D01*
X1312832Y1052781D01*
X1313051Y1052688D01*
X1313269Y1052615D01*
X1313499Y1052552D01*
X1313728Y1052500D01*
X1313936Y1052458D01*
X1314144Y1052417D01*
X1314342Y1052396D01*
X1314509Y1052375D01*
X1314665Y1052365D01*
X1314779Y1052354D01*
X1314957D01*
X1315363Y1052365D01*
X1315540Y1052385D01*
X1315727Y1052406D01*
X1315894Y1052438D01*
X1316050Y1052458D01*
X1316185Y1052490D01*
X1316321Y1052521D01*
X1316446Y1052562D01*
X1316550Y1052594D01*
X1316633Y1052615D01*
X1316716Y1052646D01*
X1316768Y1052667D01*
X1316821Y1052688D01*
X1316841Y1052698D01*
X1316852D01*
X1317123Y1052833D01*
X1317372Y1052990D01*
X1317570Y1053146D01*
X1317747Y1053302D01*
X1317872Y1053448D01*
X1317977Y1053562D01*
X1318008Y1053604D01*
X1318029Y1053635D01*
X1318049Y1053656D01*
Y1053666D01*
X1318185Y1053906D01*
X1318289Y1054145D01*
X1318362Y1054385D01*
X1318414Y1054593D01*
X1318445Y1054770D01*
X1318456Y1054854D01*
Y1054916D01*
X1318466Y1054968D01*
Y1055010D01*
Y1055031D01*
Y1055041D01*
X1318456Y1055249D01*
X1318424Y1055447D01*
X1318383Y1055645D01*
X1318331Y1055822D01*
X1318258Y1055989D01*
X1318185Y1056155D01*
X1318102Y1056301D01*
X1318018Y1056436D01*
X1317945Y1056562D01*
X1317862Y1056666D01*
X1317789Y1056759D01*
X1317716Y1056832D01*
X1317664Y1056895D01*
X1317623Y1056936D01*
X1317591Y1056968D01*
X1317581Y1056978D01*
X1317456Y1057082D01*
X1317310Y1057176D01*
X1317143Y1057270D01*
X1316977Y1057363D01*
X1316612Y1057520D01*
X1316248Y1057665D01*
X1316081Y1057717D01*
X1315925Y1057769D01*
X1315779Y1057822D01*
X1315644Y1057853D01*
X1315540Y1057884D01*
X1315467Y1057905D01*
X1315415Y1057926D01*
X1315394D01*
X1315175Y1057978D01*
X1314977Y1058030D01*
X1314800Y1058072D01*
X1314644Y1058113D01*
X1314498Y1058155D01*
X1314373Y1058186D01*
X1314259Y1058217D01*
X1314165Y1058249D01*
X1314082Y1058269D01*
X1314019Y1058290D01*
X1313957Y1058311D01*
X1313915Y1058322D01*
X1313884Y1058332D01*
X1313863D01*
X1313842Y1058342D01*
X1313665Y1058415D01*
X1313519Y1058478D01*
X1313405Y1058551D01*
X1313301Y1058613D01*
X1313238Y1058676D01*
X1313186Y1058717D01*
X1313155Y1058748D01*
X1313144Y1058759D01*
X1313071Y1058853D01*
X1313020Y1058946D01*
X1312988Y1059050D01*
X1312957Y1059144D01*
X1312947Y1059217D01*
X1312936Y1059279D01*
Y1059332D01*
Y1059342D01*
Y1059436D01*
X1312957Y1059529D01*
X1313009Y1059706D01*
X1313092Y1059873D01*
X1313176Y1060008D01*
X1313259Y1060113D01*
X1313342Y1060196D01*
X1313394Y1060248D01*
X1313405Y1060269D01*
X1313415D01*
X1313509Y1060342D01*
X1313613Y1060404D01*
X1313842Y1060498D01*
X1314082Y1060571D01*
X1314311Y1060612D01*
X1314519Y1060644D01*
X1314602Y1060654D01*
X1314686D01*
X1314748Y1060665D01*
X1314842D01*
X1315154Y1060644D01*
X1315435Y1060592D01*
X1315675Y1060529D01*
X1315883Y1060446D01*
X1315967Y1060404D01*
X1316039Y1060363D01*
X1316112Y1060331D01*
X1316165Y1060300D01*
X1316206Y1060269D01*
X1316237Y1060248D01*
X1316248Y1060227D01*
X1316258D01*
X1316352Y1060134D01*
X1316435Y1060040D01*
X1316581Y1059821D01*
X1316706Y1059582D01*
X1316800Y1059352D01*
X1316862Y1059144D01*
X1316893Y1059061D01*
X1316914Y1058978D01*
X1316925Y1058915D01*
X1316935Y1058863D01*
X1316946Y1058832D01*
Y1058821D01*
X1318831Y1059009D01*
X1318789Y1059300D01*
X1318726Y1059582D01*
X1318653Y1059831D01*
X1318570Y1060071D01*
X1318476Y1060290D01*
X1318383Y1060498D01*
X1318279Y1060675D01*
X1318174Y1060842D01*
X1318081Y1060987D01*
X1317987Y1061112D01*
X1317893Y1061217D01*
X1317820Y1061310D01*
X1317758Y1061373D01*
X1317706Y1061425D01*
X1317675Y1061456D01*
X1317664Y1061467D01*
X1317466Y1061612D01*
X1317258Y1061737D01*
X1317039Y1061852D01*
X1316810Y1061945D01*
X1316581Y1062029D01*
X1316352Y1062091D01*
X1316123Y1062154D01*
X1315894Y1062196D01*
X1315685Y1062227D01*
X1315488Y1062258D01*
X1315311Y1062279D01*
X1315165Y1062289D01*
X1315040D01*
X1314946Y1062300D01*
D02*
G37*
G36*
X1314415Y1036900D02*
X1314102D01*
X1313884Y1036889D01*
X1313665Y1036868D01*
X1313478Y1036848D01*
X1313290Y1036816D01*
X1313113Y1036796D01*
X1312957Y1036764D01*
X1312811Y1036723D01*
X1312686Y1036691D01*
X1312572Y1036660D01*
X1312467Y1036639D01*
X1312384Y1036608D01*
X1312322Y1036587D01*
X1312280Y1036566D01*
X1312249Y1036556D01*
X1312238D01*
X1311936Y1036410D01*
X1311676Y1036244D01*
X1311457Y1036056D01*
X1311270Y1035889D01*
X1311124Y1035733D01*
X1311072Y1035660D01*
X1311020Y1035598D01*
X1310989Y1035556D01*
X1310957Y1035515D01*
X1310937Y1035494D01*
Y1035483D01*
X1310853Y1035348D01*
X1310780Y1035202D01*
X1310666Y1034931D01*
X1310583Y1034671D01*
X1310531Y1034432D01*
X1310510Y1034327D01*
X1310489Y1034234D01*
X1310479Y1034140D01*
Y1034067D01*
X1310468Y1034015D01*
Y1033963D01*
Y1033942D01*
Y1033932D01*
X1310489Y1033609D01*
X1310531Y1033307D01*
X1310593Y1033046D01*
X1310624Y1032932D01*
X1310656Y1032828D01*
X1310697Y1032734D01*
X1310728Y1032651D01*
X1310760Y1032578D01*
X1310791Y1032515D01*
X1310822Y1032463D01*
X1310833Y1032432D01*
X1310853Y1032411D01*
Y1032401D01*
X1311010Y1032182D01*
X1311187Y1031984D01*
X1311364Y1031818D01*
X1311530Y1031672D01*
X1311687Y1031568D01*
X1311811Y1031484D01*
X1311864Y1031463D01*
X1311895Y1031443D01*
X1311916Y1031422D01*
X1311926D01*
X1312061Y1031359D01*
X1312207Y1031286D01*
X1312374Y1031224D01*
X1312540Y1031161D01*
X1312884Y1031047D01*
X1313228Y1030943D01*
X1313384Y1030901D01*
X1313540Y1030860D01*
X1313665Y1030818D01*
X1313790Y1030787D01*
X1313884Y1030766D01*
X1313957Y1030745D01*
X1313998Y1030734D01*
X1314019D01*
X1314269Y1030672D01*
X1314498Y1030610D01*
X1314707Y1030547D01*
X1314894Y1030485D01*
X1315061Y1030433D01*
X1315206Y1030380D01*
X1315331Y1030328D01*
X1315435Y1030287D01*
X1315529Y1030245D01*
X1315613Y1030203D01*
X1315675Y1030172D01*
X1315717Y1030141D01*
X1315758Y1030120D01*
X1315779Y1030099D01*
X1315800Y1030089D01*
X1315894Y1029995D01*
X1315967Y1029901D01*
X1316008Y1029797D01*
X1316050Y1029704D01*
X1316071Y1029631D01*
X1316081Y1029558D01*
Y1029516D01*
Y1029506D01*
X1316071Y1029370D01*
X1316029Y1029256D01*
X1315988Y1029152D01*
X1315925Y1029068D01*
X1315873Y1029006D01*
X1315821Y1028954D01*
X1315790Y1028923D01*
X1315779Y1028912D01*
X1315581Y1028798D01*
X1315373Y1028704D01*
X1315144Y1028641D01*
X1314936Y1028600D01*
X1314738Y1028579D01*
X1314655Y1028568D01*
X1314582Y1028558D01*
X1314446D01*
X1314155Y1028568D01*
X1313905Y1028610D01*
X1313696Y1028662D01*
X1313519Y1028725D01*
X1313384Y1028787D01*
X1313290Y1028839D01*
X1313238Y1028881D01*
X1313217Y1028891D01*
X1313071Y1029027D01*
X1312957Y1029193D01*
X1312863Y1029370D01*
X1312790Y1029537D01*
X1312738Y1029693D01*
X1312717Y1029766D01*
X1312697Y1029828D01*
X1312686Y1029870D01*
Y1029912D01*
X1312676Y1029933D01*
Y1029943D01*
X1310739Y1029870D01*
X1310760Y1029631D01*
X1310791Y1029401D01*
X1310843Y1029183D01*
X1310916Y1028985D01*
X1310989Y1028798D01*
X1311072Y1028621D01*
X1311155Y1028464D01*
X1311239Y1028318D01*
X1311332Y1028194D01*
X1311416Y1028079D01*
X1311489Y1027975D01*
X1311561Y1027902D01*
X1311624Y1027839D01*
X1311666Y1027787D01*
X1311697Y1027766D01*
X1311707Y1027756D01*
X1311884Y1027610D01*
X1312082Y1027496D01*
X1312301Y1027381D01*
X1312520Y1027288D01*
X1312738Y1027215D01*
X1312967Y1027152D01*
X1313197Y1027100D01*
X1313405Y1027058D01*
X1313613Y1027017D01*
X1313811Y1026996D01*
X1313978Y1026975D01*
X1314134Y1026965D01*
X1314248Y1026954D01*
X1314425D01*
X1314832Y1026965D01*
X1315009Y1026985D01*
X1315196Y1027006D01*
X1315363Y1027038D01*
X1315519Y1027058D01*
X1315654Y1027090D01*
X1315790Y1027121D01*
X1315915Y1027162D01*
X1316019Y1027194D01*
X1316102Y1027215D01*
X1316185Y1027246D01*
X1316237Y1027267D01*
X1316290Y1027288D01*
X1316310Y1027298D01*
X1316321D01*
X1316591Y1027433D01*
X1316841Y1027589D01*
X1317039Y1027746D01*
X1317216Y1027902D01*
X1317341Y1028048D01*
X1317445Y1028162D01*
X1317477Y1028204D01*
X1317498Y1028235D01*
X1317518Y1028256D01*
Y1028266D01*
X1317654Y1028506D01*
X1317758Y1028745D01*
X1317831Y1028985D01*
X1317883Y1029193D01*
X1317914Y1029370D01*
X1317924Y1029454D01*
Y1029516D01*
X1317935Y1029568D01*
Y1029610D01*
Y1029631D01*
Y1029641D01*
X1317924Y1029849D01*
X1317893Y1030047D01*
X1317852Y1030245D01*
X1317800Y1030422D01*
X1317727Y1030589D01*
X1317654Y1030755D01*
X1317570Y1030901D01*
X1317487Y1031037D01*
X1317414Y1031161D01*
X1317331Y1031266D01*
X1317258Y1031359D01*
X1317185Y1031432D01*
X1317133Y1031495D01*
X1317091Y1031536D01*
X1317060Y1031568D01*
X1317050Y1031578D01*
X1316925Y1031682D01*
X1316779Y1031776D01*
X1316612Y1031870D01*
X1316446Y1031963D01*
X1316081Y1032120D01*
X1315717Y1032265D01*
X1315550Y1032317D01*
X1315394Y1032370D01*
X1315248Y1032422D01*
X1315113Y1032453D01*
X1315009Y1032484D01*
X1314936Y1032505D01*
X1314884Y1032526D01*
X1314863D01*
X1314644Y1032578D01*
X1314446Y1032630D01*
X1314269Y1032672D01*
X1314113Y1032713D01*
X1313967Y1032755D01*
X1313842Y1032786D01*
X1313728Y1032817D01*
X1313634Y1032849D01*
X1313551Y1032869D01*
X1313488Y1032890D01*
X1313426Y1032911D01*
X1313384Y1032922D01*
X1313353Y1032932D01*
X1313332D01*
X1313311Y1032942D01*
X1313134Y1033015D01*
X1312988Y1033078D01*
X1312874Y1033151D01*
X1312769Y1033213D01*
X1312707Y1033276D01*
X1312655Y1033317D01*
X1312624Y1033348D01*
X1312613Y1033359D01*
X1312540Y1033453D01*
X1312488Y1033546D01*
X1312457Y1033650D01*
X1312426Y1033744D01*
X1312415Y1033817D01*
X1312405Y1033879D01*
Y1033932D01*
Y1033942D01*
Y1034036D01*
X1312426Y1034129D01*
X1312478Y1034306D01*
X1312561Y1034473D01*
X1312645Y1034609D01*
X1312728Y1034713D01*
X1312811Y1034796D01*
X1312863Y1034848D01*
X1312874Y1034869D01*
X1312884D01*
X1312978Y1034942D01*
X1313082Y1035004D01*
X1313311Y1035098D01*
X1313551Y1035171D01*
X1313780Y1035212D01*
X1313988Y1035244D01*
X1314071Y1035254D01*
X1314155D01*
X1314217Y1035265D01*
X1314311D01*
X1314623Y1035244D01*
X1314904Y1035192D01*
X1315144Y1035129D01*
X1315352Y1035046D01*
X1315435Y1035004D01*
X1315508Y1034963D01*
X1315581Y1034931D01*
X1315633Y1034900D01*
X1315675Y1034869D01*
X1315706Y1034848D01*
X1315717Y1034827D01*
X1315727D01*
X1315821Y1034734D01*
X1315904Y1034640D01*
X1316050Y1034421D01*
X1316175Y1034182D01*
X1316269Y1033952D01*
X1316331Y1033744D01*
X1316362Y1033661D01*
X1316383Y1033577D01*
X1316394Y1033515D01*
X1316404Y1033463D01*
X1316414Y1033432D01*
Y1033421D01*
X1318299Y1033609D01*
X1318258Y1033900D01*
X1318195Y1034182D01*
X1318122Y1034432D01*
X1318039Y1034671D01*
X1317945Y1034890D01*
X1317852Y1035098D01*
X1317747Y1035275D01*
X1317643Y1035442D01*
X1317550Y1035587D01*
X1317456Y1035712D01*
X1317362Y1035816D01*
X1317289Y1035910D01*
X1317227Y1035973D01*
X1317175Y1036025D01*
X1317143Y1036056D01*
X1317133Y1036067D01*
X1316935Y1036212D01*
X1316727Y1036337D01*
X1316508Y1036452D01*
X1316279Y1036545D01*
X1316050Y1036629D01*
X1315821Y1036691D01*
X1315592Y1036754D01*
X1315363Y1036796D01*
X1315154Y1036827D01*
X1314957Y1036858D01*
X1314779Y1036879D01*
X1314634Y1036889D01*
X1314509D01*
X1314415Y1036900D01*
D02*
G37*
G36*
X1321580Y1036723D02*
X1319643D01*
Y1027110D01*
X1321580D01*
Y1036723D01*
D02*
G37*
G36*
X1182564Y1036556D02*
X1180627D01*
Y1032474D01*
X1176608D01*
Y1030849D01*
X1180627D01*
Y1028568D01*
X1175972D01*
Y1026944D01*
X1182564D01*
Y1036556D01*
D02*
G37*
G36*
X1207550Y1665222D02*
X1201094D01*
Y1663514D01*
X1204759D01*
X1204634Y1663337D01*
X1204572Y1663253D01*
X1204520Y1663170D01*
X1204468Y1663107D01*
X1204426Y1663055D01*
X1204395Y1663024D01*
X1204384Y1663014D01*
X1204332Y1662962D01*
X1204270Y1662889D01*
X1204197Y1662816D01*
X1204114Y1662733D01*
X1203937Y1662556D01*
X1203749Y1662379D01*
X1203572Y1662212D01*
X1203489Y1662139D01*
X1203416Y1662077D01*
X1203364Y1662025D01*
X1203322Y1661983D01*
X1203291Y1661962D01*
X1203280Y1661952D01*
X1203124Y1661806D01*
X1202979Y1661670D01*
X1202843Y1661535D01*
X1202718Y1661420D01*
X1202614Y1661306D01*
X1202510Y1661212D01*
X1202427Y1661118D01*
X1202343Y1661035D01*
X1202229Y1660900D01*
X1202135Y1660806D01*
X1202093Y1660744D01*
X1202073Y1660723D01*
X1201896Y1660483D01*
X1201739Y1660254D01*
X1201614Y1660046D01*
X1201510Y1659869D01*
X1201437Y1659713D01*
X1201406Y1659650D01*
X1201375Y1659598D01*
X1201354Y1659556D01*
X1201344Y1659515D01*
X1201333Y1659504D01*
Y1659494D01*
X1201250Y1659275D01*
X1201198Y1659057D01*
X1201156Y1658848D01*
X1201125Y1658650D01*
X1201104Y1658494D01*
Y1658421D01*
X1201094Y1658369D01*
Y1658317D01*
Y1658286D01*
Y1658265D01*
Y1658255D01*
X1201104Y1658046D01*
X1201125Y1657848D01*
X1201167Y1657661D01*
X1201219Y1657473D01*
X1201281Y1657307D01*
X1201354Y1657151D01*
X1201427Y1657005D01*
X1201500Y1656880D01*
X1201583Y1656755D01*
X1201656Y1656651D01*
X1201729Y1656557D01*
X1201791Y1656484D01*
X1201843Y1656432D01*
X1201885Y1656380D01*
X1201906Y1656359D01*
X1201916Y1656349D01*
X1202073Y1656214D01*
X1202250Y1656099D01*
X1202427Y1655995D01*
X1202604Y1655901D01*
X1202791Y1655828D01*
X1202979Y1655766D01*
X1203156Y1655714D01*
X1203333Y1655672D01*
X1203499Y1655641D01*
X1203655Y1655620D01*
X1203791Y1655599D01*
X1203905Y1655589D01*
X1204009Y1655578D01*
X1204145D01*
X1204384Y1655589D01*
X1204613Y1655609D01*
X1204832Y1655641D01*
X1205030Y1655682D01*
X1205228Y1655734D01*
X1205405Y1655786D01*
X1205561Y1655849D01*
X1205717Y1655911D01*
X1205853Y1655974D01*
X1205967Y1656036D01*
X1206071Y1656089D01*
X1206155Y1656141D01*
X1206217Y1656182D01*
X1206269Y1656214D01*
X1206301Y1656234D01*
X1206311Y1656245D01*
X1206467Y1656380D01*
X1206603Y1656526D01*
X1206728Y1656693D01*
X1206832Y1656870D01*
X1206925Y1657047D01*
X1207009Y1657234D01*
X1207082Y1657411D01*
X1207144Y1657588D01*
X1207196Y1657755D01*
X1207238Y1657911D01*
X1207269Y1658057D01*
X1207290Y1658182D01*
X1207311Y1658286D01*
X1207321Y1658369D01*
X1207332Y1658411D01*
Y1658432D01*
X1205499Y1658609D01*
X1205488Y1658463D01*
X1205468Y1658327D01*
X1205415Y1658088D01*
X1205353Y1657890D01*
X1205291Y1657734D01*
X1205218Y1657609D01*
X1205165Y1657526D01*
X1205124Y1657484D01*
X1205113Y1657463D01*
X1204978Y1657349D01*
X1204822Y1657255D01*
X1204666Y1657192D01*
X1204520Y1657151D01*
X1204384Y1657130D01*
X1204280Y1657109D01*
X1204187D01*
X1203978Y1657119D01*
X1203801Y1657161D01*
X1203645Y1657213D01*
X1203510Y1657276D01*
X1203406Y1657338D01*
X1203333Y1657390D01*
X1203280Y1657432D01*
X1203270Y1657442D01*
X1203156Y1657578D01*
X1203072Y1657734D01*
X1203020Y1657890D01*
X1202979Y1658036D01*
X1202958Y1658182D01*
X1202937Y1658286D01*
Y1658327D01*
Y1658359D01*
Y1658380D01*
Y1658390D01*
X1202958Y1658598D01*
X1202999Y1658806D01*
X1203062Y1658994D01*
X1203124Y1659161D01*
X1203197Y1659306D01*
X1203260Y1659421D01*
X1203291Y1659463D01*
X1203301Y1659494D01*
X1203322Y1659504D01*
Y1659515D01*
X1203385Y1659598D01*
X1203468Y1659702D01*
X1203572Y1659817D01*
X1203676Y1659931D01*
X1203926Y1660192D01*
X1204197Y1660452D01*
X1204322Y1660577D01*
X1204447Y1660702D01*
X1204551Y1660806D01*
X1204655Y1660900D01*
X1204738Y1660973D01*
X1204801Y1661035D01*
X1204843Y1661077D01*
X1204853Y1661087D01*
X1205134Y1661348D01*
X1205384Y1661597D01*
X1205624Y1661837D01*
X1205832Y1662056D01*
X1206019Y1662254D01*
X1206186Y1662451D01*
X1206342Y1662618D01*
X1206467Y1662774D01*
X1206582Y1662920D01*
X1206675Y1663035D01*
X1206759Y1663149D01*
X1206821Y1663233D01*
X1206863Y1663295D01*
X1206905Y1663347D01*
X1206915Y1663378D01*
X1206925Y1663389D01*
X1207103Y1663712D01*
X1207238Y1664034D01*
X1207352Y1664347D01*
X1207436Y1664628D01*
X1207467Y1664753D01*
X1207488Y1664868D01*
X1207509Y1664972D01*
X1207530Y1665055D01*
X1207540Y1665128D01*
Y1665180D01*
X1207550Y1665211D01*
Y1665222D01*
D02*
G37*
G36*
X1187399D02*
X1180943D01*
Y1663514D01*
X1184608D01*
X1184483Y1663337D01*
X1184421Y1663253D01*
X1184369Y1663170D01*
X1184317Y1663107D01*
X1184275Y1663055D01*
X1184244Y1663024D01*
X1184233Y1663014D01*
X1184181Y1662962D01*
X1184119Y1662889D01*
X1184046Y1662816D01*
X1183963Y1662733D01*
X1183785Y1662556D01*
X1183598Y1662379D01*
X1183421Y1662212D01*
X1183338Y1662139D01*
X1183265Y1662077D01*
X1183213Y1662025D01*
X1183171Y1661983D01*
X1183140Y1661962D01*
X1183130Y1661952D01*
X1182973Y1661806D01*
X1182828Y1661670D01*
X1182692Y1661535D01*
X1182567Y1661420D01*
X1182463Y1661306D01*
X1182359Y1661212D01*
X1182275Y1661118D01*
X1182192Y1661035D01*
X1182078Y1660900D01*
X1181984Y1660806D01*
X1181942Y1660744D01*
X1181921Y1660723D01*
X1181744Y1660483D01*
X1181588Y1660254D01*
X1181463Y1660046D01*
X1181359Y1659869D01*
X1181286Y1659713D01*
X1181255Y1659650D01*
X1181224Y1659598D01*
X1181203Y1659556D01*
X1181192Y1659515D01*
X1181182Y1659504D01*
Y1659494D01*
X1181099Y1659275D01*
X1181047Y1659057D01*
X1181005Y1658848D01*
X1180974Y1658650D01*
X1180953Y1658494D01*
Y1658421D01*
X1180943Y1658369D01*
Y1658317D01*
Y1658286D01*
Y1658265D01*
Y1658255D01*
X1180953Y1658046D01*
X1180974Y1657848D01*
X1181015Y1657661D01*
X1181068Y1657473D01*
X1181130Y1657307D01*
X1181203Y1657151D01*
X1181276Y1657005D01*
X1181349Y1656880D01*
X1181432Y1656755D01*
X1181505Y1656651D01*
X1181578Y1656557D01*
X1181640Y1656484D01*
X1181692Y1656432D01*
X1181734Y1656380D01*
X1181755Y1656359D01*
X1181765Y1656349D01*
X1181921Y1656214D01*
X1182098Y1656099D01*
X1182275Y1655995D01*
X1182453Y1655901D01*
X1182640Y1655828D01*
X1182828Y1655766D01*
X1183005Y1655714D01*
X1183182Y1655672D01*
X1183348Y1655641D01*
X1183504Y1655620D01*
X1183640Y1655599D01*
X1183754Y1655589D01*
X1183858Y1655578D01*
X1183994D01*
X1184233Y1655589D01*
X1184463Y1655609D01*
X1184681Y1655641D01*
X1184879Y1655682D01*
X1185077Y1655734D01*
X1185254Y1655786D01*
X1185410Y1655849D01*
X1185566Y1655911D01*
X1185702Y1655974D01*
X1185816Y1656036D01*
X1185920Y1656089D01*
X1186004Y1656141D01*
X1186066Y1656182D01*
X1186118Y1656214D01*
X1186150Y1656234D01*
X1186160Y1656245D01*
X1186316Y1656380D01*
X1186451Y1656526D01*
X1186577Y1656693D01*
X1186681Y1656870D01*
X1186774Y1657047D01*
X1186858Y1657234D01*
X1186931Y1657411D01*
X1186993Y1657588D01*
X1187045Y1657755D01*
X1187087Y1657911D01*
X1187118Y1658057D01*
X1187139Y1658182D01*
X1187160Y1658286D01*
X1187170Y1658369D01*
X1187180Y1658411D01*
Y1658432D01*
X1185348Y1658609D01*
X1185337Y1658463D01*
X1185316Y1658327D01*
X1185264Y1658088D01*
X1185202Y1657890D01*
X1185139Y1657734D01*
X1185067Y1657609D01*
X1185014Y1657526D01*
X1184973Y1657484D01*
X1184962Y1657463D01*
X1184827Y1657349D01*
X1184671Y1657255D01*
X1184514Y1657192D01*
X1184369Y1657151D01*
X1184233Y1657130D01*
X1184129Y1657109D01*
X1184035D01*
X1183827Y1657119D01*
X1183650Y1657161D01*
X1183494Y1657213D01*
X1183359Y1657276D01*
X1183254Y1657338D01*
X1183182Y1657390D01*
X1183130Y1657432D01*
X1183119Y1657442D01*
X1183005Y1657578D01*
X1182921Y1657734D01*
X1182869Y1657890D01*
X1182828Y1658036D01*
X1182807Y1658182D01*
X1182786Y1658286D01*
Y1658327D01*
Y1658359D01*
Y1658380D01*
Y1658390D01*
X1182807Y1658598D01*
X1182848Y1658806D01*
X1182911Y1658994D01*
X1182973Y1659161D01*
X1183046Y1659306D01*
X1183109Y1659421D01*
X1183140Y1659463D01*
X1183150Y1659494D01*
X1183171Y1659504D01*
Y1659515D01*
X1183234Y1659598D01*
X1183317Y1659702D01*
X1183421Y1659817D01*
X1183525Y1659931D01*
X1183775Y1660192D01*
X1184046Y1660452D01*
X1184171Y1660577D01*
X1184296Y1660702D01*
X1184400Y1660806D01*
X1184504Y1660900D01*
X1184587Y1660973D01*
X1184650Y1661035D01*
X1184692Y1661077D01*
X1184702Y1661087D01*
X1184983Y1661348D01*
X1185233Y1661597D01*
X1185473Y1661837D01*
X1185681Y1662056D01*
X1185868Y1662254D01*
X1186035Y1662451D01*
X1186191Y1662618D01*
X1186316Y1662774D01*
X1186431Y1662920D01*
X1186524Y1663035D01*
X1186608Y1663149D01*
X1186670Y1663233D01*
X1186712Y1663295D01*
X1186753Y1663347D01*
X1186764Y1663378D01*
X1186774Y1663389D01*
X1186951Y1663712D01*
X1187087Y1664034D01*
X1187201Y1664347D01*
X1187285Y1664628D01*
X1187316Y1664753D01*
X1187337Y1664868D01*
X1187357Y1664972D01*
X1187378Y1665055D01*
X1187389Y1665128D01*
Y1665180D01*
X1187399Y1665211D01*
Y1665222D01*
D02*
G37*
G36*
X1257548Y1062123D02*
X1255757D01*
Y1054562D01*
X1253862Y1062123D01*
X1251987D01*
X1250092Y1054562D01*
X1250082Y1062123D01*
X1248290D01*
Y1052510D01*
X1251206D01*
X1252914Y1059071D01*
X1254643Y1052510D01*
X1257548D01*
Y1062123D01*
D02*
G37*
G36*
X1180266Y1665222D02*
X1178214D01*
X1177412Y1663035D01*
X1173569D01*
X1172726Y1665222D01*
X1170612D01*
X1174465Y1655609D01*
X1176527D01*
X1180266Y1665222D01*
D02*
G37*
G36*
X1196991D02*
X1194908D01*
X1191471Y1655609D01*
X1193533D01*
X1195887Y1662722D01*
X1198324Y1655609D01*
X1200417D01*
X1196991Y1665222D01*
D02*
G37*
G36*
X1211914D02*
X1210070D01*
Y1655578D01*
X1211570D01*
X1211633Y1655745D01*
X1211705Y1655901D01*
X1211882Y1656193D01*
X1212070Y1656453D01*
X1212268Y1656682D01*
X1212362Y1656786D01*
X1212445Y1656870D01*
X1212518Y1656953D01*
X1212591Y1657015D01*
X1212643Y1657067D01*
X1212684Y1657099D01*
X1212716Y1657119D01*
X1212726Y1657130D01*
X1213038Y1657359D01*
X1213330Y1657546D01*
X1213590Y1657703D01*
X1213820Y1657817D01*
X1213924Y1657869D01*
X1214017Y1657911D01*
X1214090Y1657942D01*
X1214163Y1657973D01*
X1214215Y1657994D01*
X1214257Y1658005D01*
X1214278Y1658015D01*
X1214288D01*
Y1659692D01*
X1214038Y1659598D01*
X1213799Y1659504D01*
X1213559Y1659400D01*
X1213341Y1659286D01*
X1213132Y1659171D01*
X1212934Y1659057D01*
X1212757Y1658942D01*
X1212591Y1658827D01*
X1212434Y1658723D01*
X1212309Y1658619D01*
X1212185Y1658525D01*
X1212091Y1658452D01*
X1212018Y1658390D01*
X1211955Y1658338D01*
X1211924Y1658307D01*
X1211914Y1658296D01*
Y1665222D01*
D02*
G37*
G36*
X1193869Y1061956D02*
X1191546D01*
X1189401Y1058696D01*
X1187266Y1061956D01*
X1184934D01*
X1188245Y1056947D01*
X1185225Y1052344D01*
X1187475D01*
X1189391Y1055229D01*
X1191286Y1052344D01*
X1193556D01*
X1190536Y1056957D01*
X1193869Y1061956D01*
D02*
G37*
G36*
X1180268D02*
X1178331D01*
Y1052344D01*
X1180268D01*
Y1061956D01*
D02*
G37*
G36*
X1196228Y1036556D02*
X1193905D01*
X1191760Y1033296D01*
X1189625Y1036556D01*
X1187292D01*
X1190604Y1031547D01*
X1187584Y1026944D01*
X1189833D01*
X1191750Y1029828D01*
X1193645Y1026944D01*
X1195915D01*
X1192895Y1031557D01*
X1196228Y1036556D01*
D02*
G37*
G36*
X1242167Y1062300D02*
X1242073D01*
X1241688Y1062289D01*
X1241313Y1062247D01*
X1240969Y1062175D01*
X1240647Y1062091D01*
X1240344Y1061998D01*
X1240063Y1061883D01*
X1239813Y1061768D01*
X1239584Y1061644D01*
X1239376Y1061519D01*
X1239199Y1061404D01*
X1239043Y1061289D01*
X1238918Y1061196D01*
X1238814Y1061112D01*
X1238751Y1061040D01*
X1238699Y1060998D01*
X1238689Y1060987D01*
X1238459Y1060727D01*
X1238272Y1060456D01*
X1238095Y1060165D01*
X1237949Y1059863D01*
X1237835Y1059561D01*
X1237731Y1059259D01*
X1237647Y1058957D01*
X1237574Y1058676D01*
X1237522Y1058405D01*
X1237481Y1058144D01*
X1237460Y1057926D01*
X1237439Y1057728D01*
X1237429Y1057561D01*
X1237418Y1057499D01*
Y1057447D01*
Y1057405D01*
Y1057374D01*
Y1057353D01*
Y1057343D01*
X1237429Y1056916D01*
X1237470Y1056509D01*
X1237533Y1056134D01*
X1237616Y1055780D01*
X1237710Y1055458D01*
X1237824Y1055156D01*
X1237939Y1054874D01*
X1238053Y1054635D01*
X1238178Y1054406D01*
X1238293Y1054218D01*
X1238397Y1054052D01*
X1238501Y1053916D01*
X1238585Y1053812D01*
X1238647Y1053739D01*
X1238689Y1053687D01*
X1238699Y1053677D01*
X1238949Y1053448D01*
X1239209Y1053239D01*
X1239480Y1053062D01*
X1239761Y1052917D01*
X1240053Y1052781D01*
X1240334Y1052677D01*
X1240605Y1052594D01*
X1240876Y1052521D01*
X1241125Y1052469D01*
X1241355Y1052427D01*
X1241563Y1052396D01*
X1241740Y1052375D01*
X1241886Y1052365D01*
X1242000Y1052354D01*
X1242094D01*
X1242521Y1052375D01*
X1242917Y1052417D01*
X1243094Y1052448D01*
X1243271Y1052479D01*
X1243427Y1052510D01*
X1243573Y1052542D01*
X1243708Y1052583D01*
X1243823Y1052615D01*
X1243927Y1052646D01*
X1244010Y1052677D01*
X1244073Y1052708D01*
X1244125Y1052719D01*
X1244156Y1052740D01*
X1244166D01*
X1244416Y1052854D01*
X1244645Y1052990D01*
X1244864Y1053135D01*
X1245041Y1053281D01*
X1245197Y1053406D01*
X1245260Y1053458D01*
X1245312Y1053510D01*
X1245354Y1053552D01*
X1245385Y1053583D01*
X1245406Y1053594D01*
X1245416Y1053604D01*
X1245614Y1053833D01*
X1245791Y1054052D01*
X1245947Y1054281D01*
X1246072Y1054479D01*
X1246166Y1054666D01*
X1246208Y1054739D01*
X1246239Y1054801D01*
X1246270Y1054854D01*
X1246291Y1054895D01*
X1246301Y1054916D01*
Y1054927D01*
X1246374Y1055114D01*
X1246447Y1055322D01*
X1246551Y1055728D01*
X1246635Y1056145D01*
X1246655Y1056343D01*
X1246687Y1056530D01*
X1246697Y1056718D01*
X1246718Y1056874D01*
X1246728Y1057020D01*
Y1057145D01*
X1246739Y1057249D01*
Y1057332D01*
Y1057374D01*
Y1057395D01*
X1246728Y1057811D01*
X1246687Y1058207D01*
X1246624Y1058582D01*
X1246541Y1058925D01*
X1246447Y1059248D01*
X1246343Y1059540D01*
X1246228Y1059811D01*
X1246103Y1060050D01*
X1245989Y1060269D01*
X1245874Y1060456D01*
X1245770Y1060623D01*
X1245676Y1060758D01*
X1245593Y1060863D01*
X1245531Y1060935D01*
X1245489Y1060977D01*
X1245479Y1060998D01*
X1245229Y1061227D01*
X1244968Y1061425D01*
X1244697Y1061602D01*
X1244416Y1061748D01*
X1244135Y1061873D01*
X1243844Y1061977D01*
X1243573Y1062070D01*
X1243302Y1062133D01*
X1243052Y1062196D01*
X1242823Y1062227D01*
X1242604Y1062258D01*
X1242427Y1062279D01*
X1242281Y1062289D01*
X1242167Y1062300D01*
D02*
G37*
G36*
X1233721Y1062123D02*
X1231784D01*
Y1054135D01*
X1228952D01*
Y1052510D01*
X1236575D01*
Y1054135D01*
X1233721D01*
Y1062123D01*
D02*
G37*
%LPD*%
G36*
X1175517Y1657848D02*
X1174184Y1661410D01*
X1176819D01*
X1175517Y1657848D01*
D02*
G37*
G36*
X1242281Y1060633D02*
X1242490Y1060602D01*
X1242688Y1060561D01*
X1242865Y1060508D01*
X1243031Y1060446D01*
X1243187Y1060373D01*
X1243333Y1060300D01*
X1243469Y1060217D01*
X1243583Y1060144D01*
X1243687Y1060071D01*
X1243781Y1059998D01*
X1243854Y1059936D01*
X1243916Y1059873D01*
X1243958Y1059831D01*
X1243979Y1059811D01*
X1243989Y1059800D01*
X1244125Y1059634D01*
X1244239Y1059446D01*
X1244333Y1059259D01*
X1244427Y1059061D01*
X1244500Y1058853D01*
X1244552Y1058644D01*
X1244604Y1058446D01*
X1244645Y1058249D01*
X1244677Y1058061D01*
X1244697Y1057884D01*
X1244718Y1057728D01*
X1244729Y1057592D01*
Y1057478D01*
X1244739Y1057395D01*
Y1057343D01*
Y1057322D01*
X1244729Y1057020D01*
X1244708Y1056739D01*
X1244677Y1056478D01*
X1244625Y1056239D01*
X1244573Y1056010D01*
X1244510Y1055812D01*
X1244437Y1055624D01*
X1244375Y1055458D01*
X1244302Y1055312D01*
X1244239Y1055187D01*
X1244177Y1055083D01*
X1244125Y1054999D01*
X1244073Y1054927D01*
X1244042Y1054885D01*
X1244021Y1054854D01*
X1244010Y1054843D01*
X1243864Y1054697D01*
X1243719Y1054572D01*
X1243552Y1054458D01*
X1243396Y1054364D01*
X1243229Y1054281D01*
X1243073Y1054208D01*
X1242917Y1054156D01*
X1242760Y1054114D01*
X1242625Y1054083D01*
X1242490Y1054052D01*
X1242375Y1054031D01*
X1242271Y1054020D01*
X1242188Y1054010D01*
X1242073D01*
X1241854Y1054020D01*
X1241646Y1054041D01*
X1241448Y1054083D01*
X1241271Y1054135D01*
X1241094Y1054197D01*
X1240938Y1054270D01*
X1240792Y1054343D01*
X1240657Y1054416D01*
X1240542Y1054500D01*
X1240438Y1054572D01*
X1240355Y1054645D01*
X1240282Y1054708D01*
X1240219Y1054760D01*
X1240178Y1054801D01*
X1240157Y1054822D01*
X1240147Y1054833D01*
X1240022Y1054989D01*
X1239907Y1055176D01*
X1239813Y1055364D01*
X1239720Y1055562D01*
X1239657Y1055760D01*
X1239595Y1055968D01*
X1239543Y1056176D01*
X1239511Y1056374D01*
X1239480Y1056562D01*
X1239459Y1056739D01*
X1239438Y1056895D01*
X1239428Y1057030D01*
X1239418Y1057145D01*
Y1057228D01*
Y1057280D01*
Y1057301D01*
X1239428Y1057603D01*
X1239449Y1057895D01*
X1239491Y1058155D01*
X1239532Y1058405D01*
X1239595Y1058624D01*
X1239657Y1058832D01*
X1239720Y1059019D01*
X1239792Y1059186D01*
X1239865Y1059332D01*
X1239928Y1059457D01*
X1239990Y1059571D01*
X1240053Y1059654D01*
X1240095Y1059727D01*
X1240136Y1059769D01*
X1240157Y1059800D01*
X1240167Y1059811D01*
X1240313Y1059957D01*
X1240470Y1060081D01*
X1240626Y1060196D01*
X1240782Y1060290D01*
X1240938Y1060373D01*
X1241105Y1060435D01*
X1241251Y1060498D01*
X1241396Y1060540D01*
X1241542Y1060571D01*
X1241667Y1060602D01*
X1241782Y1060623D01*
X1241875Y1060633D01*
X1241959D01*
X1242021Y1060644D01*
X1242073D01*
X1242281Y1060633D01*
D02*
G37*
G36*
X1336930Y1054750D02*
X1335597Y1058311D01*
X1338232D01*
X1336930Y1054750D01*
D02*
G37*
G36*
X1336399Y1029350D02*
X1335066Y1032911D01*
X1337701D01*
X1336399Y1029350D01*
D02*
G37*
D18*
X1497250Y1658812D02*
X1512485D01*
Y1651195D01*
X1509946Y1648656D01*
X1504868D01*
X1502328Y1651195D01*
Y1658812D01*
Y1653734D02*
X1497250Y1648656D01*
Y1635960D02*
Y1641038D01*
X1499789Y1643577D01*
X1504868D01*
X1507407Y1641038D01*
Y1635960D01*
X1504868Y1633421D01*
X1502328D01*
Y1643577D01*
X1497250Y1628342D02*
X1507407D01*
Y1620725D01*
X1504868Y1618185D01*
X1497250D01*
X1507407Y1610568D02*
Y1605490D01*
X1504868Y1602950D01*
X1497250D01*
Y1610568D01*
X1499789Y1613107D01*
X1502328Y1610568D01*
Y1602950D01*
X1497250Y1597872D02*
X1507407D01*
Y1590255D01*
X1504868Y1587715D01*
X1497250D01*
X1512485Y1567402D02*
X1497250D01*
Y1559784D01*
X1499789Y1557245D01*
X1509946D01*
X1512485Y1559784D01*
Y1567402D01*
X1507407Y1552167D02*
X1499789D01*
X1497250Y1549628D01*
Y1542010D01*
X1507407D01*
Y1534393D02*
Y1529314D01*
X1504868Y1526775D01*
X1497250D01*
Y1534393D01*
X1499789Y1536932D01*
X1502328Y1534393D01*
Y1526775D01*
X1507407Y1521697D02*
X1497250D01*
X1502328D01*
X1504868Y1519158D01*
X1507407Y1516618D01*
Y1514079D01*
X1509946Y1503922D02*
X1507407D01*
Y1506462D01*
Y1501383D01*
Y1503922D01*
X1499789D01*
X1497250Y1501383D01*
Y1486148D02*
Y1491227D01*
X1499789Y1493766D01*
X1504868D01*
X1507407Y1491227D01*
Y1486148D01*
X1504868Y1483609D01*
X1502328D01*
Y1493766D01*
X1497250Y1453139D02*
Y1463296D01*
X1507407Y1453139D01*
X1509946D01*
X1512485Y1455678D01*
Y1460756D01*
X1509946Y1463296D01*
Y1448061D02*
X1512485Y1445521D01*
Y1440443D01*
X1509946Y1437904D01*
X1499789D01*
X1497250Y1440443D01*
Y1445521D01*
X1499789Y1448061D01*
X1509946D01*
X1497250Y1422669D02*
Y1432825D01*
X1507407Y1422669D01*
X1509946D01*
X1512485Y1425208D01*
Y1430286D01*
X1509946Y1432825D01*
X1497250Y1409973D02*
X1512485D01*
X1504868Y1417590D01*
Y1407434D01*
D31*
X1296590Y1117475D02*
G03*
X1296590Y1117475I-2540J0D01*
G01*
X1156890D02*
G03*
X1156890Y1117475I-2540J0D01*
G01*
X1461690D02*
G03*
X1461690Y1117475I-2540J0D01*
G01*
X1325800Y1130175D02*
X1452800D01*
X1186100D02*
Y1155575D01*
X1287700Y1130175D02*
Y1155575D01*
X1186100Y1130175D02*
X1287700D01*
X1186100Y1155575D02*
X1287700D01*
X1097200Y1130175D02*
Y1155575D01*
X1148000D01*
X1097200Y1130175D02*
X1148000D01*
Y1155575D01*
X1325800D02*
X1452800D01*
Y1130175D02*
Y1155575D01*
X1325800Y1130175D02*
Y1155575D01*
X1181335Y1149227D02*
X1182922Y1150814D01*
Y1153988D01*
X1181335Y1155575D01*
X1174987D01*
X1173400Y1153988D01*
Y1150814D01*
X1174987Y1149227D01*
X1173400Y1146053D02*
X1182922D01*
X1173400Y1139705D01*
X1182922D01*
X1173400Y1131770D02*
X1182922D01*
X1178161Y1136531D01*
Y1130183D01*
X1162285Y1149227D02*
X1163872Y1150814D01*
Y1153988D01*
X1162285Y1155575D01*
X1155937D01*
X1154350Y1153988D01*
Y1150814D01*
X1155937Y1149227D01*
X1154350Y1146053D02*
X1163872D01*
X1154350Y1139705D01*
X1163872D01*
X1162285Y1136531D02*
X1163872Y1134944D01*
Y1131770D01*
X1162285Y1130183D01*
X1160698D01*
X1159111Y1131770D01*
Y1133357D01*
Y1131770D01*
X1157524Y1130183D01*
X1155937D01*
X1154350Y1131770D01*
Y1134944D01*
X1155937Y1136531D01*
X1497252Y1115890D02*
X1498839Y1114303D01*
X1502013D01*
X1503600Y1115890D01*
Y1122238D01*
X1502013Y1123825D01*
X1498839D01*
X1497252Y1122238D01*
X1494078Y1123825D02*
Y1114303D01*
X1487730Y1123825D01*
Y1114303D01*
X1478208Y1123825D02*
X1484556D01*
X1478208Y1117477D01*
Y1115890D01*
X1479795Y1114303D01*
X1482969D01*
X1484556Y1115890D01*
X1065452D02*
X1067039Y1114303D01*
X1070213D01*
X1071800Y1115890D01*
Y1122238D01*
X1070213Y1123825D01*
X1067039D01*
X1065452Y1122238D01*
X1062278Y1123825D02*
Y1114303D01*
X1055930Y1123825D01*
Y1114303D01*
X1052756Y1123825D02*
X1049582D01*
X1051169D01*
Y1114303D01*
X1052756Y1115890D01*
X1321035Y1149227D02*
X1322622Y1150814D01*
Y1153988D01*
X1321035Y1155575D01*
X1314687D01*
X1313100Y1153988D01*
Y1150814D01*
X1314687Y1149227D01*
X1313100Y1146053D02*
X1322622D01*
X1313100Y1139705D01*
X1322622D01*
Y1130183D02*
Y1136531D01*
X1317861D01*
X1319448Y1133357D01*
Y1131770D01*
X1317861Y1130183D01*
X1314687D01*
X1313100Y1131770D01*
Y1134944D01*
X1314687Y1136531D01*
X1275002Y1522290D02*
X1278176D01*
X1276589D01*
Y1530225D01*
X1278176Y1531812D01*
X1279763D01*
X1281350Y1530225D01*
X1271828Y1531812D02*
X1268654D01*
X1270241D01*
Y1522290D01*
X1271828Y1523877D01*
X1275002Y1463553D02*
X1281350D01*
Y1468314D01*
X1278176D01*
X1281350D01*
Y1473075D01*
X1271828D02*
X1268654D01*
X1270241D01*
Y1463553D01*
X1271828Y1465140D01*
X1370252Y1617540D02*
X1371839Y1615953D01*
X1375013D01*
X1376600Y1617540D01*
Y1623888D01*
X1375013Y1625475D01*
X1371839D01*
X1370252Y1623888D01*
X1367078Y1625475D02*
X1363904D01*
X1365491D01*
Y1615953D01*
X1367078Y1617540D01*
X1179752D02*
X1181339Y1615953D01*
X1184513D01*
X1186100Y1617540D01*
Y1623888D01*
X1184513Y1625475D01*
X1181339D01*
X1179752Y1623888D01*
X1170230Y1625475D02*
X1176578D01*
X1170230Y1619127D01*
Y1617540D01*
X1171817Y1615953D01*
X1174991D01*
X1176578Y1617540D01*
D32*
X1097200Y1130175D02*
X1097900D01*
X1465900D02*
Y1384175D01*
Y1130175D02*
X1515900D01*
Y1384175D01*
X1465900D02*
X1515900D01*
X1034100D02*
X1084100D01*
Y1130175D02*
Y1384175D01*
X1034100Y1130175D02*
X1084100D01*
X1034100D02*
Y1384175D01*
X1230000Y1535925D02*
X1249500D01*
X1230000Y1598425D02*
Y1679925D01*
X1301500Y1535925D02*
X1320000D01*
X1230000D02*
Y1547425D01*
X1320000Y1535925D02*
Y1679925D01*
X1230000D02*
X1320000D01*
X1316750Y1478475D02*
Y1518475D01*
X1233250Y1478475D02*
Y1518475D01*
Y1478475D02*
X1316750D01*
X1233250Y1518475D02*
X1316750D01*
D33*
X1395250Y1493075D02*
X1410250Y1485575D01*
X1395250Y1508075D02*
X1410250Y1500575D01*
X1395250D02*
X1410250Y1493075D01*
X1395250Y1523075D02*
X1410250Y1515575D01*
X1395250D02*
X1410250Y1508075D01*
X1395250Y1538075D02*
X1410250Y1530575D01*
X1395250D02*
X1410250Y1523075D01*
X1395250Y1553075D02*
X1410250Y1545575D01*
X1395250D02*
X1410250Y1538075D01*
X1395250Y1568075D02*
X1410250Y1560575D01*
X1395250D02*
X1410250Y1553075D01*
X1395250Y1583075D02*
X1410250Y1575575D01*
X1395250D02*
X1410250Y1568075D01*
X1395250Y1598075D02*
X1410250Y1590575D01*
X1395250D02*
X1410250Y1583075D01*
X1395250Y1605575D02*
X1410250Y1598075D01*
X1395250Y1613075D02*
X1410250Y1605575D01*
X1395250Y1483075D02*
Y1613075D01*
X1330250Y1483075D02*
X1410250D01*
X1330250D02*
Y1613075D01*
X1410250D01*
Y1483075D02*
Y1613075D01*
X1342750Y1490575D02*
X1352750D01*
X1347750Y1485575D02*
Y1495575D01*
X1204750Y1493075D02*
X1219750Y1485575D01*
X1204750Y1508075D02*
X1219750Y1500575D01*
X1204750D02*
X1219750Y1493075D01*
X1204750Y1523075D02*
X1219750Y1515575D01*
X1204750D02*
X1219750Y1508075D01*
X1204750Y1538075D02*
X1219750Y1530575D01*
X1204750D02*
X1219750Y1523075D01*
X1204750Y1553075D02*
X1219750Y1545575D01*
X1204750D02*
X1219750Y1538075D01*
X1204750Y1568075D02*
X1219750Y1560575D01*
X1204750D02*
X1219750Y1553075D01*
X1204750Y1583075D02*
X1219750Y1575575D01*
X1204750D02*
X1219750Y1568075D01*
X1204750Y1598075D02*
X1219750Y1590575D01*
X1204750D02*
X1219750Y1583075D01*
X1204750Y1605575D02*
X1219750Y1598075D01*
X1204750Y1613075D02*
X1219750Y1605575D01*
X1204750Y1483075D02*
Y1613075D01*
X1139750Y1483075D02*
X1219750D01*
X1139750D02*
Y1613075D01*
X1219750D01*
Y1483075D02*
Y1613075D01*
X1152250Y1490575D02*
X1162250D01*
X1157250Y1485575D02*
Y1495575D01*
D34*
X1160700Y1073025D02*
X1389300D01*
M02*
