G04*
G04 #@! TF.GenerationSoftware,Altium Limited,CircuitStudio,1.5.2 (30)*
G04*
G04 Layer_Physical_Order=2*
G04 Layer_Color=12500520*
%FSLAX44Y44*%
%MOMM*%
G71*
G01*
G75*
G04:AMPARAMS|DCode=10|XSize=0.9mm|YSize=0.7mm|CornerRadius=0.175mm|HoleSize=0mm|Usage=FLASHONLY|Rotation=0.000|XOffset=0mm|YOffset=0mm|HoleType=Round|Shape=RoundedRectangle|*
%AMROUNDEDRECTD10*
21,1,0.9000,0.3500,0,0,0.0*
21,1,0.5500,0.7000,0,0,0.0*
1,1,0.3500,0.2750,-0.1750*
1,1,0.3500,-0.2750,-0.1750*
1,1,0.3500,-0.2750,0.1750*
1,1,0.3500,0.2750,0.1750*
%
%ADD10ROUNDEDRECTD10*%
G04:AMPARAMS|DCode=11|XSize=1.4mm|YSize=1.7mm|CornerRadius=0.35mm|HoleSize=0mm|Usage=FLASHONLY|Rotation=90.000|XOffset=0mm|YOffset=0mm|HoleType=Round|Shape=RoundedRectangle|*
%AMROUNDEDRECTD11*
21,1,1.4000,1.0000,0,0,90.0*
21,1,0.7000,1.7000,0,0,90.0*
1,1,0.7000,0.5000,0.3500*
1,1,0.7000,0.5000,-0.3500*
1,1,0.7000,-0.5000,-0.3500*
1,1,0.7000,-0.5000,0.3500*
%
%ADD11ROUNDEDRECTD11*%
G04:AMPARAMS|DCode=12|XSize=4mm|YSize=1.7mm|CornerRadius=0.2125mm|HoleSize=0mm|Usage=FLASHONLY|Rotation=90.000|XOffset=0mm|YOffset=0mm|HoleType=Round|Shape=RoundedRectangle|*
%AMROUNDEDRECTD12*
21,1,4.0000,1.2750,0,0,90.0*
21,1,3.5750,1.7000,0,0,90.0*
1,1,0.4250,0.6375,1.7875*
1,1,0.4250,0.6375,-1.7875*
1,1,0.4250,-0.6375,-1.7875*
1,1,0.4250,-0.6375,1.7875*
%
%ADD12ROUNDEDRECTD12*%
G04:AMPARAMS|DCode=13|XSize=0.9mm|YSize=0.7mm|CornerRadius=0.175mm|HoleSize=0mm|Usage=FLASHONLY|Rotation=270.000|XOffset=0mm|YOffset=0mm|HoleType=Round|Shape=RoundedRectangle|*
%AMROUNDEDRECTD13*
21,1,0.9000,0.3500,0,0,270.0*
21,1,0.5500,0.7000,0,0,270.0*
1,1,0.3500,-0.1750,-0.2750*
1,1,0.3500,-0.1750,0.2750*
1,1,0.3500,0.1750,0.2750*
1,1,0.3500,0.1750,-0.2750*
%
%ADD13ROUNDEDRECTD13*%
G04:AMPARAMS|DCode=14|XSize=1.68mm|YSize=1.7mm|CornerRadius=0.21mm|HoleSize=0mm|Usage=FLASHONLY|Rotation=270.000|XOffset=0mm|YOffset=0mm|HoleType=Round|Shape=RoundedRectangle|*
%AMROUNDEDRECTD14*
21,1,1.6800,1.2800,0,0,270.0*
21,1,1.2600,1.7000,0,0,270.0*
1,1,0.4200,-0.6400,-0.6300*
1,1,0.4200,-0.6400,0.6300*
1,1,0.4200,0.6400,0.6300*
1,1,0.4200,0.6400,-0.6300*
%
%ADD14ROUNDEDRECTD14*%
%ADD15C,1.0000*%
%ADD16C,1.2700*%
%ADD17C,0.5000*%
%ADD18C,0.2540*%
%ADD19C,1.6500*%
%ADD20R,1.6500X1.6500*%
%ADD21C,1.5000*%
%ADD22R,1.5000X1.5000*%
%ADD23C,1.5080*%
%ADD24R,1.5080X1.5080*%
%ADD25R,1.5080X1.5080*%
%ADD26O,2.2500X4.5000*%
%ADD27O,4.5000X2.2500*%
%ADD28O,5.0000X2.5000*%
%ADD29C,2.0000*%
%ADD30O,2.0000X1.2000*%
G36*
X1524881Y1004119D02*
X1436402D01*
X1436255Y1005360D01*
X1441535Y1007547D01*
X1446409Y1010534D01*
X1450754Y1014245D01*
X1454466Y1018591D01*
X1457453Y1023465D01*
X1459640Y1028745D01*
X1460974Y1034302D01*
X1461422Y1040000D01*
X1460974Y1045698D01*
X1459640Y1051255D01*
X1457453Y1056535D01*
X1454466Y1061408D01*
X1450754Y1065754D01*
X1446409Y1069466D01*
X1441535Y1072452D01*
X1436255Y1074640D01*
X1430698Y1075974D01*
X1425000Y1076422D01*
X1419302Y1075974D01*
X1413745Y1074640D01*
X1408465Y1072452D01*
X1403591Y1069466D01*
X1399246Y1065754D01*
X1395534Y1061408D01*
X1392547Y1056535D01*
X1390360Y1051255D01*
X1389026Y1045698D01*
X1388578Y1040000D01*
X1389026Y1034302D01*
X1390360Y1028745D01*
X1392547Y1023465D01*
X1395534Y1018591D01*
X1399246Y1014245D01*
X1403591Y1010534D01*
X1408465Y1007547D01*
X1413745Y1005360D01*
X1413598Y1004119D01*
X1136402D01*
X1136255Y1005360D01*
X1141535Y1007547D01*
X1146408Y1010534D01*
X1150754Y1014245D01*
X1154466Y1018591D01*
X1157452Y1023465D01*
X1159640Y1028745D01*
X1160974Y1034302D01*
X1161422Y1040000D01*
X1160974Y1045698D01*
X1159640Y1051255D01*
X1157452Y1056535D01*
X1154466Y1061408D01*
X1150754Y1065754D01*
X1146408Y1069466D01*
X1141535Y1072452D01*
X1136255Y1074640D01*
X1130698Y1075974D01*
X1125000Y1076422D01*
X1119302Y1075974D01*
X1113745Y1074640D01*
X1108465Y1072452D01*
X1103592Y1069466D01*
X1099246Y1065754D01*
X1095534Y1061408D01*
X1092548Y1056535D01*
X1090360Y1051255D01*
X1089026Y1045698D01*
X1088578Y1040000D01*
X1089026Y1034302D01*
X1090360Y1028745D01*
X1092548Y1023465D01*
X1095534Y1018591D01*
X1099246Y1014245D01*
X1103592Y1010534D01*
X1108465Y1007547D01*
X1113745Y1005360D01*
X1113598Y1004119D01*
X1025119D01*
Y1675881D01*
X1113598D01*
X1113745Y1674639D01*
X1108465Y1672452D01*
X1103592Y1669466D01*
X1099246Y1665754D01*
X1095534Y1661408D01*
X1092548Y1656535D01*
X1090360Y1651255D01*
X1089026Y1645698D01*
X1088578Y1640000D01*
X1089026Y1634302D01*
X1090360Y1628745D01*
X1092548Y1623465D01*
X1095534Y1618591D01*
X1099246Y1614245D01*
X1103592Y1610534D01*
X1108465Y1607547D01*
X1113745Y1605360D01*
X1119302Y1604026D01*
X1125000Y1603578D01*
X1130698Y1604026D01*
X1136255Y1605360D01*
X1141535Y1607547D01*
X1146408Y1610534D01*
X1150754Y1614245D01*
X1154466Y1618591D01*
X1157452Y1623465D01*
X1159640Y1628745D01*
X1160974Y1634302D01*
X1161422Y1640000D01*
X1160974Y1645698D01*
X1159640Y1651255D01*
X1157452Y1656535D01*
X1154466Y1661408D01*
X1150754Y1665754D01*
X1146408Y1669466D01*
X1141535Y1672452D01*
X1136255Y1674639D01*
X1136402Y1675881D01*
X1413598D01*
X1413745Y1674639D01*
X1408465Y1672452D01*
X1403591Y1669466D01*
X1399246Y1665754D01*
X1395534Y1661408D01*
X1392547Y1656535D01*
X1390360Y1651255D01*
X1389026Y1645698D01*
X1388578Y1640000D01*
X1389026Y1634302D01*
X1390360Y1628745D01*
X1392547Y1623465D01*
X1395534Y1618591D01*
X1399246Y1614245D01*
X1403591Y1610534D01*
X1408465Y1607547D01*
X1413745Y1605360D01*
X1419302Y1604026D01*
X1425000Y1603578D01*
X1430698Y1604026D01*
X1436255Y1605360D01*
X1441535Y1607547D01*
X1446409Y1610534D01*
X1450754Y1614245D01*
X1454466Y1618591D01*
X1457453Y1623465D01*
X1459640Y1628745D01*
X1460974Y1634302D01*
X1461422Y1640000D01*
X1460974Y1645698D01*
X1459640Y1651255D01*
X1457453Y1656535D01*
X1454466Y1661408D01*
X1450754Y1665754D01*
X1446409Y1669466D01*
X1441535Y1672452D01*
X1436255Y1674639D01*
X1436402Y1675881D01*
X1524881D01*
Y1004119D01*
D02*
G37*
%LPC*%
G36*
X1455450Y1213499D02*
X1451950D01*
X1450276Y1213166D01*
X1448857Y1212218D01*
X1447909Y1210799D01*
X1447576Y1209125D01*
Y1203625D01*
X1447909Y1201951D01*
X1448857Y1200532D01*
X1448620Y1199163D01*
X1447909Y1198099D01*
X1447576Y1196425D01*
Y1190925D01*
X1447909Y1189251D01*
X1448857Y1187832D01*
X1450276Y1186884D01*
X1451950Y1186551D01*
X1455450D01*
X1457124Y1186884D01*
X1458543Y1187832D01*
X1459491Y1189251D01*
X1459598Y1189790D01*
X1468899D01*
X1469395Y1188591D01*
X1471011Y1186486D01*
X1473116Y1184870D01*
X1475569Y1183854D01*
X1478200Y1183508D01*
X1480831Y1183854D01*
X1483284Y1184870D01*
X1485389Y1186486D01*
X1487005Y1188591D01*
X1488020Y1191043D01*
X1488367Y1193675D01*
X1488020Y1196306D01*
X1487005Y1198758D01*
X1485389Y1200864D01*
X1483284Y1202480D01*
X1480831Y1203495D01*
X1478200Y1203842D01*
X1475569Y1203495D01*
X1473116Y1202480D01*
X1471011Y1200864D01*
X1469395Y1198758D01*
X1468899Y1197560D01*
X1459598D01*
X1459491Y1198099D01*
X1458780Y1199163D01*
X1458543Y1200532D01*
X1459491Y1201951D01*
X1459824Y1203625D01*
Y1209125D01*
X1459491Y1210799D01*
X1458543Y1212218D01*
X1457124Y1213166D01*
X1455450Y1213499D01*
D02*
G37*
G36*
X1478200Y1178442D02*
X1475569Y1178095D01*
X1473116Y1177080D01*
X1471011Y1175464D01*
X1469395Y1173358D01*
X1468899Y1172160D01*
X1459598D01*
X1459491Y1172699D01*
X1458543Y1174118D01*
X1457124Y1175066D01*
X1455450Y1175399D01*
X1451950D01*
X1450276Y1175066D01*
X1448857Y1174118D01*
X1447909Y1172699D01*
X1447576Y1171025D01*
Y1165525D01*
X1447909Y1163851D01*
X1448857Y1162432D01*
X1448620Y1161063D01*
X1447909Y1159999D01*
X1447576Y1158325D01*
Y1152825D01*
X1447909Y1151151D01*
X1448857Y1149732D01*
X1450276Y1148784D01*
X1451950Y1148451D01*
X1455450D01*
X1457124Y1148784D01*
X1458543Y1149732D01*
X1459491Y1151151D01*
X1459824Y1152825D01*
Y1158325D01*
X1459491Y1159999D01*
X1458780Y1161063D01*
X1458543Y1162432D01*
X1459491Y1163851D01*
X1459598Y1164390D01*
X1468899D01*
X1469395Y1163191D01*
X1471011Y1161086D01*
X1473116Y1159470D01*
X1475569Y1158454D01*
X1478200Y1158108D01*
X1480831Y1158454D01*
X1483284Y1159470D01*
X1485389Y1161086D01*
X1487005Y1163191D01*
X1488020Y1165643D01*
X1488367Y1168275D01*
X1488020Y1170906D01*
X1487005Y1173358D01*
X1485389Y1175464D01*
X1483284Y1177080D01*
X1480831Y1178095D01*
X1478200Y1178442D01*
D02*
G37*
G36*
X1046400Y1203842D02*
X1043769Y1203495D01*
X1041317Y1202480D01*
X1039211Y1200864D01*
X1037595Y1198758D01*
X1036580Y1196306D01*
X1036233Y1193675D01*
X1036580Y1191043D01*
X1037595Y1188591D01*
X1039211Y1186486D01*
X1041317Y1184870D01*
X1043769Y1183854D01*
X1046400Y1183508D01*
X1049031Y1183854D01*
X1051484Y1184870D01*
X1053589Y1186486D01*
X1055205Y1188591D01*
X1056220Y1191043D01*
X1056567Y1193675D01*
X1056220Y1196306D01*
X1055205Y1198758D01*
X1053589Y1200864D01*
X1051484Y1202480D01*
X1049031Y1203495D01*
X1046400Y1203842D01*
D02*
G37*
G36*
X1071800Y1229242D02*
X1069169Y1228895D01*
X1066717Y1227880D01*
X1064611Y1226264D01*
X1062995Y1224158D01*
X1061980Y1221706D01*
X1061633Y1219075D01*
X1061980Y1216443D01*
X1062995Y1213991D01*
X1064611Y1211886D01*
X1066717Y1210270D01*
X1069169Y1209254D01*
X1071800Y1208908D01*
X1074431Y1209254D01*
X1076883Y1210270D01*
X1078989Y1211886D01*
X1080605Y1213991D01*
X1081620Y1216443D01*
X1081967Y1219075D01*
X1081620Y1221706D01*
X1080605Y1224158D01*
X1078989Y1226264D01*
X1076883Y1227880D01*
X1074431Y1228895D01*
X1071800Y1229242D01*
D02*
G37*
G36*
X1046400D02*
X1043769Y1228895D01*
X1041317Y1227880D01*
X1039211Y1226264D01*
X1037595Y1224158D01*
X1036580Y1221706D01*
X1036233Y1219075D01*
X1036580Y1216443D01*
X1037595Y1213991D01*
X1039211Y1211886D01*
X1041317Y1210270D01*
X1043769Y1209254D01*
X1046400Y1208908D01*
X1049031Y1209254D01*
X1051484Y1210270D01*
X1053589Y1211886D01*
X1055205Y1213991D01*
X1056220Y1216443D01*
X1056567Y1219075D01*
X1056220Y1221706D01*
X1055205Y1224158D01*
X1053589Y1226264D01*
X1051484Y1227880D01*
X1049031Y1228895D01*
X1046400Y1229242D01*
D02*
G37*
G36*
X1503600Y1203842D02*
X1500969Y1203495D01*
X1498517Y1202480D01*
X1496411Y1200864D01*
X1494795Y1198758D01*
X1493779Y1196306D01*
X1493433Y1193675D01*
X1493779Y1191043D01*
X1494795Y1188591D01*
X1496411Y1186486D01*
X1498517Y1184870D01*
X1500969Y1183854D01*
X1503600Y1183508D01*
X1506231Y1183854D01*
X1508683Y1184870D01*
X1510789Y1186486D01*
X1512405Y1188591D01*
X1513421Y1191043D01*
X1513767Y1193675D01*
X1513421Y1196306D01*
X1512405Y1198758D01*
X1510789Y1200864D01*
X1508683Y1202480D01*
X1506231Y1203495D01*
X1503600Y1203842D01*
D02*
G37*
G36*
Y1178442D02*
X1500969Y1178095D01*
X1498517Y1177080D01*
X1496411Y1175464D01*
X1494795Y1173358D01*
X1493779Y1170906D01*
X1493433Y1168275D01*
X1493779Y1165643D01*
X1494795Y1163191D01*
X1496411Y1161086D01*
X1498517Y1159470D01*
X1500969Y1158454D01*
X1503600Y1158108D01*
X1506231Y1158454D01*
X1508683Y1159470D01*
X1510789Y1161086D01*
X1512405Y1163191D01*
X1513421Y1165643D01*
X1513767Y1168275D01*
X1513421Y1170906D01*
X1512405Y1173358D01*
X1510789Y1175464D01*
X1508683Y1177080D01*
X1506231Y1178095D01*
X1503600Y1178442D01*
D02*
G37*
G36*
X1478200Y1153042D02*
X1475569Y1152695D01*
X1473116Y1151680D01*
X1471011Y1150064D01*
X1469395Y1147958D01*
X1468380Y1145506D01*
X1468033Y1142875D01*
X1468380Y1140244D01*
X1469395Y1137791D01*
X1471011Y1135686D01*
X1473116Y1134070D01*
X1475569Y1133054D01*
X1478200Y1132708D01*
X1480831Y1133054D01*
X1483284Y1134070D01*
X1485389Y1135686D01*
X1487005Y1137791D01*
X1488020Y1140244D01*
X1488367Y1142875D01*
X1488020Y1145506D01*
X1487005Y1147958D01*
X1485389Y1150064D01*
X1483284Y1151680D01*
X1480831Y1152695D01*
X1478200Y1153042D01*
D02*
G37*
G36*
X1071800D02*
X1069169Y1152695D01*
X1066717Y1151680D01*
X1064611Y1150064D01*
X1062995Y1147958D01*
X1061980Y1145506D01*
X1061633Y1142875D01*
X1061980Y1140244D01*
X1062995Y1137791D01*
X1064611Y1135686D01*
X1066717Y1134070D01*
X1069169Y1133054D01*
X1071800Y1132708D01*
X1074431Y1133054D01*
X1076883Y1134070D01*
X1078989Y1135686D01*
X1080605Y1137791D01*
X1081620Y1140244D01*
X1081967Y1142875D01*
X1081620Y1145506D01*
X1080605Y1147958D01*
X1078989Y1150064D01*
X1076883Y1151680D01*
X1074431Y1152695D01*
X1071800Y1153042D01*
D02*
G37*
G36*
X1046400D02*
X1043769Y1152695D01*
X1041317Y1151680D01*
X1039211Y1150064D01*
X1037595Y1147958D01*
X1036580Y1145506D01*
X1036233Y1142875D01*
X1036580Y1140244D01*
X1037595Y1137791D01*
X1039211Y1135686D01*
X1041317Y1134070D01*
X1043769Y1133054D01*
X1046400Y1132708D01*
X1049031Y1133054D01*
X1051484Y1134070D01*
X1053589Y1135686D01*
X1055205Y1137791D01*
X1056220Y1140244D01*
X1056567Y1142875D01*
X1056220Y1145506D01*
X1055205Y1147958D01*
X1053589Y1150064D01*
X1051484Y1151680D01*
X1049031Y1152695D01*
X1046400Y1153042D01*
D02*
G37*
G36*
Y1178442D02*
X1043769Y1178095D01*
X1041317Y1177080D01*
X1039211Y1175464D01*
X1037595Y1173358D01*
X1036580Y1170906D01*
X1036233Y1168275D01*
X1036580Y1165643D01*
X1037595Y1163191D01*
X1039211Y1161086D01*
X1041317Y1159470D01*
X1043769Y1158454D01*
X1046400Y1158108D01*
X1049031Y1158454D01*
X1051484Y1159470D01*
X1053589Y1161086D01*
X1055205Y1163191D01*
X1056220Y1165643D01*
X1056567Y1168275D01*
X1056220Y1170906D01*
X1055205Y1173358D01*
X1053589Y1175464D01*
X1051484Y1177080D01*
X1049031Y1178095D01*
X1046400Y1178442D01*
D02*
G37*
G36*
X1444606Y1150575D02*
X1444200D01*
Y1149967D01*
X1444606Y1150575D01*
D02*
G37*
G36*
X1503600Y1153042D02*
X1500969Y1152695D01*
X1498517Y1151680D01*
X1496411Y1150064D01*
X1494795Y1147958D01*
X1493779Y1145506D01*
X1493433Y1142875D01*
X1493779Y1140244D01*
X1494795Y1137791D01*
X1496411Y1135686D01*
X1498517Y1134070D01*
X1500969Y1133054D01*
X1503600Y1132708D01*
X1506231Y1133054D01*
X1508683Y1134070D01*
X1510789Y1135686D01*
X1512405Y1137791D01*
X1513421Y1140244D01*
X1513767Y1142875D01*
X1513421Y1145506D01*
X1512405Y1147958D01*
X1510789Y1150064D01*
X1508683Y1151680D01*
X1506231Y1152695D01*
X1503600Y1153042D01*
D02*
G37*
G36*
X1478200Y1254642D02*
X1475569Y1254295D01*
X1473116Y1253280D01*
X1471011Y1251664D01*
X1469395Y1249558D01*
X1468899Y1248360D01*
X1459598D01*
X1459491Y1248899D01*
X1458543Y1250318D01*
X1457124Y1251266D01*
X1455450Y1251599D01*
X1451950D01*
X1450276Y1251266D01*
X1448857Y1250318D01*
X1447909Y1248899D01*
X1447576Y1247225D01*
Y1241725D01*
X1447909Y1240051D01*
X1448620Y1238987D01*
X1448857Y1237618D01*
X1447909Y1236199D01*
X1447576Y1234525D01*
Y1229025D01*
X1447909Y1227351D01*
X1448857Y1225932D01*
X1450276Y1224984D01*
X1451950Y1224651D01*
X1455450D01*
X1457124Y1224984D01*
X1458543Y1225932D01*
X1459491Y1227351D01*
X1459824Y1229025D01*
Y1234525D01*
X1459491Y1236199D01*
X1458543Y1237618D01*
X1458780Y1238987D01*
X1459491Y1240051D01*
X1459598Y1240590D01*
X1468899D01*
X1469395Y1239391D01*
X1471011Y1237286D01*
X1473116Y1235670D01*
X1475569Y1234654D01*
X1478200Y1234308D01*
X1480831Y1234654D01*
X1483284Y1235670D01*
X1485389Y1237286D01*
X1487005Y1239391D01*
X1488020Y1241843D01*
X1488367Y1244475D01*
X1488020Y1247106D01*
X1487005Y1249558D01*
X1485389Y1251664D01*
X1483284Y1253280D01*
X1480831Y1254295D01*
X1478200Y1254642D01*
D02*
G37*
G36*
X1503600D02*
X1500969Y1254295D01*
X1498517Y1253280D01*
X1496411Y1251664D01*
X1494795Y1249558D01*
X1493779Y1247106D01*
X1493433Y1244475D01*
X1493779Y1241843D01*
X1494795Y1239391D01*
X1496411Y1237286D01*
X1498517Y1235670D01*
X1500969Y1234654D01*
X1503600Y1234308D01*
X1506231Y1234654D01*
X1508683Y1235670D01*
X1510789Y1237286D01*
X1512405Y1239391D01*
X1513421Y1241843D01*
X1513767Y1244475D01*
X1513421Y1247106D01*
X1512405Y1249558D01*
X1510789Y1251664D01*
X1508683Y1253280D01*
X1506231Y1254295D01*
X1503600Y1254642D01*
D02*
G37*
G36*
X1071800D02*
X1069169Y1254295D01*
X1066717Y1253280D01*
X1064611Y1251664D01*
X1062995Y1249558D01*
X1061980Y1247106D01*
X1061633Y1244475D01*
X1061980Y1241843D01*
X1062995Y1239391D01*
X1064611Y1237286D01*
X1066717Y1235670D01*
X1069169Y1234654D01*
X1071800Y1234308D01*
X1074431Y1234654D01*
X1076883Y1235670D01*
X1078989Y1237286D01*
X1080605Y1239391D01*
X1081620Y1241843D01*
X1081967Y1244475D01*
X1081620Y1247106D01*
X1080605Y1249558D01*
X1078989Y1251664D01*
X1076883Y1253280D01*
X1074431Y1254295D01*
X1071800Y1254642D01*
D02*
G37*
G36*
X1455450Y1289699D02*
X1451950D01*
X1450276Y1289366D01*
X1448857Y1288418D01*
X1447909Y1286999D01*
X1447576Y1285325D01*
Y1279825D01*
X1447909Y1278151D01*
X1448620Y1277087D01*
X1448857Y1275718D01*
X1447909Y1274299D01*
X1447576Y1272625D01*
Y1267125D01*
X1447909Y1265451D01*
X1448857Y1264032D01*
X1450276Y1263084D01*
X1451950Y1262751D01*
X1455450D01*
X1457124Y1263084D01*
X1458543Y1264032D01*
X1459491Y1265451D01*
X1459598Y1265990D01*
X1468899D01*
X1469395Y1264791D01*
X1471011Y1262686D01*
X1473116Y1261070D01*
X1475569Y1260054D01*
X1478200Y1259708D01*
X1480831Y1260054D01*
X1483284Y1261070D01*
X1485389Y1262686D01*
X1487005Y1264791D01*
X1488020Y1267243D01*
X1488367Y1269875D01*
X1488020Y1272506D01*
X1487005Y1274958D01*
X1485389Y1277064D01*
X1483284Y1278680D01*
X1480831Y1279695D01*
X1478200Y1280042D01*
X1475569Y1279695D01*
X1473116Y1278680D01*
X1471011Y1277064D01*
X1469395Y1274958D01*
X1468899Y1273760D01*
X1459598D01*
X1459491Y1274299D01*
X1458543Y1275718D01*
X1458780Y1277087D01*
X1459491Y1278151D01*
X1459824Y1279825D01*
Y1285325D01*
X1459491Y1286999D01*
X1458543Y1288418D01*
X1457124Y1289366D01*
X1455450Y1289699D01*
D02*
G37*
G36*
X1071800Y1280042D02*
X1069169Y1279695D01*
X1066717Y1278680D01*
X1064611Y1277064D01*
X1062995Y1274958D01*
X1061980Y1272506D01*
X1061633Y1269875D01*
X1061980Y1267243D01*
X1062995Y1264791D01*
X1064611Y1262686D01*
X1066717Y1261070D01*
X1069169Y1260054D01*
X1071800Y1259708D01*
X1074431Y1260054D01*
X1076883Y1261070D01*
X1078989Y1262686D01*
X1080605Y1264791D01*
X1081620Y1267243D01*
X1081967Y1269875D01*
X1081620Y1272506D01*
X1080605Y1274958D01*
X1078989Y1277064D01*
X1076883Y1278680D01*
X1074431Y1279695D01*
X1071800Y1280042D01*
D02*
G37*
G36*
X1046400D02*
X1043769Y1279695D01*
X1041317Y1278680D01*
X1039211Y1277064D01*
X1037595Y1274958D01*
X1036580Y1272506D01*
X1036233Y1269875D01*
X1036580Y1267243D01*
X1037595Y1264791D01*
X1039211Y1262686D01*
X1041317Y1261070D01*
X1043769Y1260054D01*
X1046400Y1259708D01*
X1049031Y1260054D01*
X1051484Y1261070D01*
X1053589Y1262686D01*
X1055205Y1264791D01*
X1056220Y1267243D01*
X1056567Y1269875D01*
X1056220Y1272506D01*
X1055205Y1274958D01*
X1053589Y1277064D01*
X1051484Y1278680D01*
X1049031Y1279695D01*
X1046400Y1280042D01*
D02*
G37*
G36*
Y1254642D02*
X1043769Y1254295D01*
X1041317Y1253280D01*
X1039211Y1251664D01*
X1037595Y1249558D01*
X1036580Y1247106D01*
X1036233Y1244475D01*
X1036580Y1241843D01*
X1037595Y1239391D01*
X1039211Y1237286D01*
X1041317Y1235670D01*
X1043769Y1234654D01*
X1046400Y1234308D01*
X1049031Y1234654D01*
X1051484Y1235670D01*
X1053589Y1237286D01*
X1055205Y1239391D01*
X1056220Y1241843D01*
X1056567Y1244475D01*
X1056220Y1247106D01*
X1055205Y1249558D01*
X1053589Y1251664D01*
X1051484Y1253280D01*
X1049031Y1254295D01*
X1046400Y1254642D01*
D02*
G37*
G36*
X1434200Y1211983D02*
X1433794Y1211375D01*
X1434200D01*
Y1211983D01*
D02*
G37*
G36*
X1503600Y1229242D02*
X1500969Y1228895D01*
X1498517Y1227880D01*
X1496411Y1226264D01*
X1494795Y1224158D01*
X1493779Y1221706D01*
X1493433Y1219075D01*
X1493779Y1216443D01*
X1494795Y1213991D01*
X1496411Y1211886D01*
X1498517Y1210270D01*
X1500969Y1209254D01*
X1503600Y1208908D01*
X1506231Y1209254D01*
X1508683Y1210270D01*
X1510789Y1211886D01*
X1512405Y1213991D01*
X1513421Y1216443D01*
X1513767Y1219075D01*
X1513421Y1221706D01*
X1512405Y1224158D01*
X1510789Y1226264D01*
X1508683Y1227880D01*
X1506231Y1228895D01*
X1503600Y1229242D01*
D02*
G37*
G36*
X1478200D02*
X1475569Y1228895D01*
X1473116Y1227880D01*
X1471011Y1226264D01*
X1469395Y1224158D01*
X1468380Y1221706D01*
X1468033Y1219075D01*
X1468380Y1216443D01*
X1469395Y1213991D01*
X1471011Y1211886D01*
X1473116Y1210270D01*
X1475569Y1209254D01*
X1478200Y1208908D01*
X1480831Y1209254D01*
X1483284Y1210270D01*
X1485389Y1211886D01*
X1487005Y1213991D01*
X1488020Y1216443D01*
X1488367Y1219075D01*
X1488020Y1221706D01*
X1487005Y1224158D01*
X1485389Y1226264D01*
X1483284Y1227880D01*
X1480831Y1228895D01*
X1478200Y1229242D01*
D02*
G37*
G36*
X1444606Y1226775D02*
X1444200D01*
Y1226167D01*
X1444606Y1226775D01*
D02*
G37*
G36*
X1434200D02*
X1433794D01*
X1434200Y1226167D01*
Y1226775D01*
D02*
G37*
G36*
X1444200Y1211983D02*
Y1211375D01*
X1444606D01*
X1444200Y1211983D01*
D02*
G37*
G36*
X1358900Y1100914D02*
X1358817Y1100880D01*
X1356711Y1099264D01*
X1355095Y1097158D01*
X1355061Y1097075D01*
X1358900D01*
Y1100914D01*
D02*
G37*
G36*
X1140300D02*
Y1097075D01*
X1144139D01*
X1144105Y1097158D01*
X1142489Y1099264D01*
X1140384Y1100880D01*
X1140300Y1100914D01*
D02*
G37*
G36*
X1130300D02*
X1130217Y1100880D01*
X1128111Y1099264D01*
X1126495Y1097158D01*
X1126461Y1097075D01*
X1130300D01*
Y1100914D01*
D02*
G37*
G36*
X1445100D02*
Y1097075D01*
X1448939D01*
X1448905Y1097158D01*
X1447289Y1099264D01*
X1445184Y1100880D01*
X1445100Y1100914D01*
D02*
G37*
G36*
X1435100D02*
X1435016Y1100880D01*
X1432911Y1099264D01*
X1431295Y1097158D01*
X1431261Y1097075D01*
X1435100D01*
Y1100914D01*
D02*
G37*
G36*
X1368900D02*
Y1097075D01*
X1372739D01*
X1372705Y1097158D01*
X1371089Y1099264D01*
X1368983Y1100880D01*
X1368900Y1100914D01*
D02*
G37*
G36*
X1448939Y1087075D02*
X1445100D01*
Y1083235D01*
X1445184Y1083270D01*
X1447289Y1084886D01*
X1448905Y1086991D01*
X1448939Y1087075D01*
D02*
G37*
G36*
X1144139D02*
X1140300D01*
Y1083235D01*
X1140384Y1083270D01*
X1142489Y1084886D01*
X1144105Y1086991D01*
X1144139Y1087075D01*
D02*
G37*
G36*
X1130300D02*
X1126461D01*
X1126495Y1086991D01*
X1128111Y1084886D01*
X1130217Y1083270D01*
X1130300Y1083235D01*
Y1087075D01*
D02*
G37*
G36*
X1071800Y1178442D02*
X1069169Y1178095D01*
X1066717Y1177080D01*
X1064611Y1175464D01*
X1062995Y1173358D01*
X1061980Y1170906D01*
X1061633Y1168275D01*
X1061980Y1165643D01*
X1062995Y1163191D01*
X1064611Y1161086D01*
X1066717Y1159470D01*
X1069169Y1158454D01*
X1071800Y1158108D01*
X1074431Y1158454D01*
X1076883Y1159470D01*
X1078989Y1161086D01*
X1079793Y1161138D01*
X1086965Y1153966D01*
Y1104775D01*
X1087261Y1103288D01*
X1088103Y1102028D01*
X1099987Y1090144D01*
X1100079Y1089444D01*
X1101095Y1086991D01*
X1102711Y1084886D01*
X1104817Y1083270D01*
X1107269Y1082254D01*
X1109900Y1081908D01*
X1112531Y1082254D01*
X1114984Y1083270D01*
X1117089Y1084886D01*
X1118705Y1086991D01*
X1119721Y1089444D01*
X1120067Y1092075D01*
X1119721Y1094706D01*
X1118705Y1097158D01*
X1117089Y1099264D01*
X1114984Y1100880D01*
X1112531Y1101895D01*
X1109900Y1102242D01*
X1107269Y1101895D01*
X1104817Y1100880D01*
X1102711Y1099264D01*
X1101907Y1099211D01*
X1094735Y1106384D01*
Y1155575D01*
X1094439Y1157061D01*
X1093597Y1158322D01*
X1081713Y1170206D01*
X1081620Y1170906D01*
X1080605Y1173358D01*
X1078989Y1175464D01*
X1076883Y1177080D01*
X1074431Y1178095D01*
X1071800Y1178442D01*
D02*
G37*
G36*
X1435100Y1087075D02*
X1431261D01*
X1431295Y1086991D01*
X1432911Y1084886D01*
X1435016Y1083270D01*
X1435100Y1083235D01*
Y1087075D01*
D02*
G37*
G36*
X1372739D02*
X1368900D01*
Y1083235D01*
X1368983Y1083270D01*
X1371089Y1084886D01*
X1372705Y1086991D01*
X1372739Y1087075D01*
D02*
G37*
G36*
X1358900D02*
X1355061D01*
X1355095Y1086991D01*
X1356711Y1084886D01*
X1358817Y1083270D01*
X1358900Y1083235D01*
Y1087075D01*
D02*
G37*
G36*
X1130300Y1127555D02*
X1125220D01*
Y1122475D01*
X1130300D01*
Y1127555D01*
D02*
G37*
G36*
X1358900Y1112475D02*
X1355061D01*
X1355095Y1112391D01*
X1356711Y1110286D01*
X1358817Y1108670D01*
X1358900Y1108635D01*
Y1112475D01*
D02*
G37*
G36*
X1313100Y1318858D02*
X1310283Y1318487D01*
X1307658Y1317400D01*
X1305405Y1315670D01*
X1303675Y1313416D01*
X1302588Y1310792D01*
X1302217Y1307975D01*
X1302588Y1305158D01*
X1303675Y1302533D01*
X1304133Y1301936D01*
Y1279939D01*
X1268660Y1244465D01*
X1267235Y1242608D01*
X1266339Y1240446D01*
X1266033Y1238125D01*
Y1127515D01*
X1264960D01*
Y1107435D01*
X1285040D01*
Y1127515D01*
X1283967D01*
Y1234411D01*
X1319440Y1269884D01*
X1320865Y1271741D01*
X1321761Y1273904D01*
X1322067Y1276225D01*
Y1301936D01*
X1322525Y1302533D01*
X1323612Y1305158D01*
X1323983Y1307975D01*
X1323612Y1310792D01*
X1322525Y1313416D01*
X1320795Y1315670D01*
X1318542Y1317400D01*
X1315917Y1318487D01*
X1313100Y1318858D01*
D02*
G37*
G36*
X1450180Y1127555D02*
X1445100D01*
Y1122475D01*
X1450180D01*
Y1127555D01*
D02*
G37*
G36*
X1358900Y1126314D02*
X1358817Y1126280D01*
X1356711Y1124664D01*
X1355095Y1122558D01*
X1355061Y1122475D01*
X1358900D01*
Y1126314D01*
D02*
G37*
G36*
X1145380Y1127555D02*
X1140300D01*
Y1122475D01*
X1145380D01*
Y1127555D01*
D02*
G37*
G36*
X1450180Y1112475D02*
X1445100D01*
Y1107395D01*
X1450180D01*
Y1112475D01*
D02*
G37*
G36*
X1262300Y1318858D02*
X1259483Y1318487D01*
X1256858Y1317400D01*
X1254604Y1315670D01*
X1252875Y1313416D01*
X1251788Y1310792D01*
X1251417Y1307975D01*
X1251788Y1305158D01*
X1252875Y1302533D01*
X1253333Y1301936D01*
Y1292639D01*
X1217860Y1257165D01*
X1216435Y1255308D01*
X1215539Y1253146D01*
X1215233Y1250825D01*
Y1122063D01*
X1214418Y1120096D01*
X1214073Y1117475D01*
X1214418Y1114854D01*
X1215430Y1112412D01*
X1217039Y1110314D01*
X1219137Y1108705D01*
X1221579Y1107693D01*
X1224200Y1107348D01*
X1226821Y1107693D01*
X1229263Y1108705D01*
X1231361Y1110314D01*
X1232970Y1112412D01*
X1233982Y1114854D01*
X1234327Y1117475D01*
X1233982Y1120096D01*
X1233167Y1122063D01*
Y1247111D01*
X1268640Y1282585D01*
X1270065Y1284442D01*
X1270961Y1286604D01*
X1271267Y1288925D01*
Y1301936D01*
X1271725Y1302533D01*
X1272812Y1305158D01*
X1273183Y1307975D01*
X1272812Y1310792D01*
X1271725Y1313416D01*
X1269995Y1315670D01*
X1267741Y1317400D01*
X1265117Y1318487D01*
X1262300Y1318858D01*
D02*
G37*
G36*
X1236900D02*
X1234083Y1318487D01*
X1231458Y1317400D01*
X1229204Y1315670D01*
X1227475Y1313416D01*
X1226388Y1310792D01*
X1226017Y1307975D01*
X1226388Y1305158D01*
X1227475Y1302533D01*
X1227933Y1301936D01*
Y1298989D01*
X1192460Y1263515D01*
X1191035Y1261658D01*
X1190139Y1259496D01*
X1189833Y1257175D01*
Y1122063D01*
X1189018Y1120096D01*
X1188673Y1117475D01*
X1189018Y1114854D01*
X1190030Y1112412D01*
X1191639Y1110314D01*
X1193737Y1108705D01*
X1196179Y1107693D01*
X1198800Y1107348D01*
X1201421Y1107693D01*
X1203863Y1108705D01*
X1205961Y1110314D01*
X1207570Y1112412D01*
X1208582Y1114854D01*
X1208927Y1117475D01*
X1208582Y1120096D01*
X1207767Y1122063D01*
Y1253461D01*
X1243240Y1288934D01*
X1244665Y1290791D01*
X1245561Y1292954D01*
X1245867Y1295275D01*
Y1301936D01*
X1246325Y1302533D01*
X1247412Y1305158D01*
X1247783Y1307975D01*
X1247412Y1310792D01*
X1246325Y1313416D01*
X1244595Y1315670D01*
X1242342Y1317400D01*
X1239717Y1318487D01*
X1236900Y1318858D01*
D02*
G37*
G36*
X1071800Y1203842D02*
X1069169Y1203495D01*
X1066717Y1202480D01*
X1064611Y1200864D01*
X1062995Y1198758D01*
X1061980Y1196306D01*
X1061633Y1193675D01*
X1061980Y1191043D01*
X1062995Y1188591D01*
X1064611Y1186486D01*
X1066717Y1184870D01*
X1069169Y1183854D01*
X1071800Y1183508D01*
X1074431Y1183854D01*
X1076883Y1184870D01*
X1078989Y1186486D01*
X1080605Y1188591D01*
X1081101Y1189790D01*
X1089241D01*
X1106015Y1173016D01*
Y1126776D01*
X1104817Y1126280D01*
X1102711Y1124664D01*
X1101095Y1122558D01*
X1100079Y1120106D01*
X1099733Y1117475D01*
X1100079Y1114844D01*
X1101095Y1112391D01*
X1102711Y1110286D01*
X1104817Y1108670D01*
X1107269Y1107654D01*
X1109900Y1107308D01*
X1112531Y1107654D01*
X1114984Y1108670D01*
X1117089Y1110286D01*
X1118705Y1112391D01*
X1119721Y1114844D01*
X1120067Y1117475D01*
X1119721Y1120106D01*
X1118705Y1122558D01*
X1117089Y1124664D01*
X1114984Y1126280D01*
X1113785Y1126776D01*
Y1174625D01*
X1113489Y1176112D01*
X1112647Y1177372D01*
X1093597Y1196422D01*
X1092337Y1197264D01*
X1090850Y1197560D01*
X1081101D01*
X1080605Y1198758D01*
X1078989Y1200864D01*
X1076883Y1202480D01*
X1074431Y1203495D01*
X1071800Y1203842D01*
D02*
G37*
G36*
X1145380Y1112475D02*
X1140300D01*
Y1107395D01*
X1145380D01*
Y1112475D01*
D02*
G37*
G36*
X1130300D02*
X1125220D01*
Y1107395D01*
X1130300D01*
Y1112475D01*
D02*
G37*
G36*
X1287700Y1318858D02*
X1284883Y1318487D01*
X1282258Y1317400D01*
X1280004Y1315670D01*
X1278275Y1313416D01*
X1277188Y1310792D01*
X1276817Y1307975D01*
X1277188Y1305158D01*
X1278275Y1302533D01*
X1278733Y1301936D01*
Y1286289D01*
X1243260Y1250815D01*
X1241835Y1248958D01*
X1240939Y1246796D01*
X1240633Y1244475D01*
Y1122063D01*
X1239818Y1120096D01*
X1239473Y1117475D01*
X1239818Y1114854D01*
X1240830Y1112412D01*
X1242439Y1110314D01*
X1244537Y1108705D01*
X1246979Y1107693D01*
X1249600Y1107348D01*
X1252221Y1107693D01*
X1254663Y1108705D01*
X1256761Y1110314D01*
X1258370Y1112412D01*
X1259382Y1114854D01*
X1259727Y1117475D01*
X1259382Y1120096D01*
X1258567Y1122063D01*
Y1240761D01*
X1294040Y1276235D01*
X1295465Y1278092D01*
X1296361Y1280254D01*
X1296667Y1282575D01*
Y1301936D01*
X1297125Y1302533D01*
X1298212Y1305158D01*
X1298583Y1307975D01*
X1298212Y1310792D01*
X1297125Y1313416D01*
X1295396Y1315670D01*
X1293141Y1317400D01*
X1290517Y1318487D01*
X1287700Y1318858D01*
D02*
G37*
G36*
X1202250Y1481557D02*
Y1478075D01*
X1208178D01*
X1207341Y1479166D01*
X1205557Y1480535D01*
X1203479Y1481395D01*
X1202250Y1481557D01*
D02*
G37*
G36*
X1382750D02*
X1381521Y1481395D01*
X1379443Y1480535D01*
X1377659Y1479166D01*
X1376822Y1478075D01*
X1382750D01*
Y1481557D01*
D02*
G37*
G36*
X1192250D02*
X1191021Y1481395D01*
X1188943Y1480535D01*
X1187159Y1479166D01*
X1186322Y1478075D01*
X1192250D01*
Y1481557D01*
D02*
G37*
G36*
X1400381Y1493475D02*
X1394250D01*
Y1487444D01*
X1395650D01*
X1397460Y1487804D01*
X1398995Y1488830D01*
X1400021Y1490365D01*
X1400381Y1492175D01*
Y1493475D01*
D02*
G37*
G36*
X1384250D02*
X1378119D01*
Y1492175D01*
X1378479Y1490365D01*
X1379505Y1488830D01*
X1381040Y1487804D01*
X1382850Y1487444D01*
X1384250D01*
Y1493475D01*
D02*
G37*
G36*
X1392750Y1481557D02*
Y1478075D01*
X1398678D01*
X1397841Y1479166D01*
X1396057Y1480535D01*
X1393979Y1481395D01*
X1392750Y1481557D01*
D02*
G37*
G36*
X1382750Y1468075D02*
X1376822D01*
X1377659Y1466984D01*
X1379443Y1465615D01*
X1381521Y1464755D01*
X1382750Y1464593D01*
Y1468075D01*
D02*
G37*
G36*
X1196890Y1445765D02*
X1175310D01*
Y1438860D01*
X1163608D01*
X1163120Y1440038D01*
X1161511Y1442135D01*
X1159413Y1443745D01*
X1156971Y1444756D01*
X1154350Y1445101D01*
X1151729Y1444756D01*
X1149287Y1443745D01*
X1147189Y1442135D01*
X1145580Y1440038D01*
X1144568Y1437596D01*
X1144223Y1434975D01*
X1144568Y1432354D01*
X1145580Y1429912D01*
X1147189Y1427814D01*
X1149287Y1426205D01*
X1151729Y1425193D01*
X1154350Y1424848D01*
X1156971Y1425193D01*
X1159413Y1426205D01*
X1161511Y1427814D01*
X1163120Y1429912D01*
X1163608Y1431090D01*
X1175310D01*
Y1424185D01*
X1196890D01*
Y1445765D01*
D02*
G37*
G36*
X1338500Y1445858D02*
X1335683Y1445487D01*
X1333058Y1444400D01*
X1330804Y1442670D01*
X1329075Y1440416D01*
X1327988Y1437792D01*
X1327617Y1434975D01*
X1327988Y1432158D01*
X1329075Y1429533D01*
X1330804Y1427279D01*
X1333058Y1425550D01*
X1334615Y1424905D01*
Y1404834D01*
X1324191Y1394409D01*
X1148000D01*
X1146513Y1394114D01*
X1145253Y1393272D01*
X1114641Y1362659D01*
X1078956D01*
X1078525Y1363929D01*
X1078989Y1364286D01*
X1080605Y1366391D01*
X1081620Y1368844D01*
X1081967Y1371475D01*
X1081620Y1374106D01*
X1080605Y1376558D01*
X1079405Y1378122D01*
Y1390293D01*
X1080570Y1391812D01*
X1081582Y1394254D01*
X1081927Y1396875D01*
X1081582Y1399496D01*
X1080570Y1401938D01*
X1078961Y1404035D01*
X1076863Y1405645D01*
X1074421Y1406656D01*
X1071800Y1407001D01*
X1069179Y1406656D01*
X1066737Y1405645D01*
X1064639Y1404035D01*
X1063030Y1401938D01*
X1062018Y1399496D01*
X1061673Y1396875D01*
X1062018Y1394254D01*
X1063030Y1391812D01*
X1064195Y1390293D01*
Y1378122D01*
X1062995Y1376558D01*
X1061980Y1374106D01*
X1061633Y1371475D01*
X1061980Y1368844D01*
X1062995Y1366391D01*
X1064611Y1364286D01*
X1065075Y1363929D01*
X1064644Y1362659D01*
X1059100D01*
X1057750Y1362391D01*
X1057371Y1362477D01*
X1056480Y1362954D01*
Y1381555D01*
X1051539D01*
Y1394746D01*
X1067579Y1410786D01*
X1198800D01*
X1200767Y1411177D01*
X1202434Y1412291D01*
X1214809Y1424666D01*
X1216942Y1425550D01*
X1219195Y1427279D01*
X1220925Y1429533D01*
X1221050Y1429836D01*
X1227349D01*
X1227475Y1429533D01*
X1229204Y1427279D01*
X1231458Y1425550D01*
X1234083Y1424463D01*
X1236900Y1424092D01*
X1239717Y1424463D01*
X1242342Y1425550D01*
X1244595Y1427279D01*
X1246325Y1429533D01*
X1246451Y1429836D01*
X1252749D01*
X1252875Y1429533D01*
X1254604Y1427279D01*
X1256858Y1425550D01*
X1259483Y1424463D01*
X1262300Y1424092D01*
X1265117Y1424463D01*
X1267741Y1425550D01*
X1269995Y1427279D01*
X1271725Y1429533D01*
X1271851Y1429836D01*
X1278149D01*
X1278275Y1429533D01*
X1280004Y1427279D01*
X1282258Y1425550D01*
X1284883Y1424463D01*
X1287700Y1424092D01*
X1290517Y1424463D01*
X1293141Y1425550D01*
X1295396Y1427279D01*
X1297125Y1429533D01*
X1297251Y1429836D01*
X1303549D01*
X1303675Y1429533D01*
X1305405Y1427279D01*
X1307658Y1425550D01*
X1307961Y1425424D01*
Y1418287D01*
X1305939Y1416736D01*
X1304330Y1414638D01*
X1303318Y1412196D01*
X1302973Y1409575D01*
X1303318Y1406954D01*
X1304330Y1404512D01*
X1305939Y1402414D01*
X1308037Y1400805D01*
X1310479Y1399793D01*
X1313100Y1399448D01*
X1315721Y1399793D01*
X1318163Y1400805D01*
X1320261Y1402414D01*
X1321870Y1404512D01*
X1322882Y1406954D01*
X1323227Y1409575D01*
X1322882Y1412196D01*
X1321870Y1414638D01*
X1320261Y1416736D01*
X1318239Y1418287D01*
Y1425424D01*
X1318542Y1425550D01*
X1320795Y1427279D01*
X1322525Y1429533D01*
X1323612Y1432158D01*
X1323983Y1434975D01*
X1323612Y1437792D01*
X1322525Y1440416D01*
X1320795Y1442670D01*
X1318542Y1444400D01*
X1315917Y1445487D01*
X1313100Y1445858D01*
X1310283Y1445487D01*
X1307658Y1444400D01*
X1305405Y1442670D01*
X1303675Y1440416D01*
X1303549Y1440114D01*
X1297251D01*
X1297125Y1440416D01*
X1295396Y1442670D01*
X1293141Y1444400D01*
X1290517Y1445487D01*
X1287700Y1445858D01*
X1284883Y1445487D01*
X1282258Y1444400D01*
X1280004Y1442670D01*
X1278275Y1440416D01*
X1278149Y1440114D01*
X1271851D01*
X1271725Y1440416D01*
X1269995Y1442670D01*
X1267741Y1444400D01*
X1265117Y1445487D01*
X1262300Y1445858D01*
X1259483Y1445487D01*
X1256858Y1444400D01*
X1254604Y1442670D01*
X1252875Y1440416D01*
X1252749Y1440114D01*
X1246451D01*
X1246325Y1440416D01*
X1244595Y1442670D01*
X1242342Y1444400D01*
X1239717Y1445487D01*
X1236900Y1445858D01*
X1234083Y1445487D01*
X1231458Y1444400D01*
X1229204Y1442670D01*
X1227475Y1440416D01*
X1227349Y1440114D01*
X1221050D01*
X1220925Y1440416D01*
X1219195Y1442670D01*
X1216942Y1444400D01*
X1214317Y1445487D01*
X1211500Y1445858D01*
X1208683Y1445487D01*
X1206058Y1444400D01*
X1203804Y1442670D01*
X1202075Y1440416D01*
X1200988Y1437792D01*
X1200617Y1434975D01*
X1200988Y1432158D01*
X1202075Y1429533D01*
X1203406Y1427798D01*
X1196672Y1421064D01*
X1065450D01*
X1063484Y1420672D01*
X1061816Y1419559D01*
X1042766Y1400509D01*
X1041652Y1398841D01*
X1041261Y1396875D01*
Y1381555D01*
X1036320D01*
Y1361395D01*
X1054567D01*
X1055053Y1360222D01*
X1050230Y1355399D01*
X1049031Y1355895D01*
X1046400Y1356242D01*
X1043769Y1355895D01*
X1041317Y1354880D01*
X1039211Y1353264D01*
X1037595Y1351158D01*
X1036580Y1348706D01*
X1036233Y1346075D01*
X1036580Y1343443D01*
X1037595Y1340991D01*
X1039211Y1338886D01*
X1041317Y1337270D01*
X1043769Y1336254D01*
X1046400Y1335908D01*
X1049031Y1336254D01*
X1051484Y1337270D01*
X1053589Y1338886D01*
X1055205Y1340991D01*
X1056220Y1343443D01*
X1056567Y1346075D01*
X1056220Y1348706D01*
X1055724Y1349905D01*
X1060709Y1354890D01*
X1064644D01*
X1065075Y1353620D01*
X1064611Y1353264D01*
X1062995Y1351158D01*
X1062961Y1351075D01*
X1071800D01*
X1080639D01*
X1080605Y1351158D01*
X1078989Y1353264D01*
X1078525Y1353620D01*
X1078956Y1354890D01*
X1116250D01*
X1117737Y1355186D01*
X1118997Y1356028D01*
X1149609Y1386640D01*
X1325800D01*
X1327287Y1386936D01*
X1328547Y1387778D01*
X1341247Y1400478D01*
X1342089Y1401738D01*
X1342385Y1403225D01*
Y1424905D01*
X1343941Y1425550D01*
X1346196Y1427279D01*
X1347925Y1429533D01*
X1349012Y1432158D01*
X1349383Y1434975D01*
X1349012Y1437792D01*
X1347925Y1440416D01*
X1346196Y1442670D01*
X1343941Y1444400D01*
X1341317Y1445487D01*
X1338500Y1445858D01*
D02*
G37*
G36*
X1398678Y1468075D02*
X1392750D01*
Y1464593D01*
X1393979Y1464755D01*
X1396057Y1465615D01*
X1397841Y1466984D01*
X1398678Y1468075D01*
D02*
G37*
G36*
X1208178D02*
X1202250D01*
Y1464593D01*
X1203479Y1464755D01*
X1205557Y1465615D01*
X1207341Y1466984D01*
X1208178Y1468075D01*
D02*
G37*
G36*
X1192250D02*
X1186322D01*
X1187159Y1466984D01*
X1188943Y1465615D01*
X1191021Y1464755D01*
X1192250Y1464593D01*
Y1468075D01*
D02*
G37*
G36*
X1384250Y1509506D02*
X1382850D01*
X1381040Y1509146D01*
X1379505Y1508120D01*
X1378479Y1506585D01*
X1378119Y1504775D01*
Y1503475D01*
X1384250D01*
Y1509506D01*
D02*
G37*
G36*
X1270000Y1597925D02*
X1250895D01*
X1251704Y1595970D01*
X1253915Y1593090D01*
X1256796Y1590879D01*
X1260150Y1589490D01*
X1263750Y1589016D01*
X1270000D01*
Y1597925D01*
D02*
G37*
G36*
X1233000Y1597030D02*
Y1577925D01*
X1241909D01*
Y1584175D01*
X1241435Y1587775D01*
X1240045Y1591129D01*
X1237835Y1594010D01*
X1234955Y1596220D01*
X1233000Y1597030D01*
D02*
G37*
G36*
X1223000D02*
X1221046Y1596220D01*
X1218165Y1594010D01*
X1215954Y1591129D01*
X1214565Y1587775D01*
X1214091Y1584175D01*
Y1577925D01*
X1223000D01*
Y1597030D01*
D02*
G37*
G36*
X1286250Y1616834D02*
X1280000D01*
Y1607925D01*
X1299105D01*
X1298295Y1609879D01*
X1296085Y1612760D01*
X1293204Y1614970D01*
X1289850Y1616360D01*
X1286250Y1616834D01*
D02*
G37*
G36*
X1270000D02*
X1263750D01*
X1260150Y1616360D01*
X1256796Y1614970D01*
X1253915Y1612760D01*
X1251704Y1609879D01*
X1250895Y1607925D01*
X1270000D01*
Y1616834D01*
D02*
G37*
G36*
X1299105Y1597925D02*
X1280000D01*
Y1589016D01*
X1286250D01*
X1289850Y1589490D01*
X1293204Y1590879D01*
X1296085Y1593090D01*
X1298295Y1595970D01*
X1299105Y1597925D01*
D02*
G37*
G36*
X1223000Y1567925D02*
X1214091D01*
Y1561675D01*
X1214565Y1558075D01*
X1215954Y1554720D01*
X1218165Y1551840D01*
X1221046Y1549629D01*
X1223000Y1548820D01*
Y1567925D01*
D02*
G37*
G36*
X1287500Y1558038D02*
X1262500D01*
X1259552Y1557747D01*
X1256717Y1556887D01*
X1254104Y1555491D01*
X1251814Y1553611D01*
X1249934Y1551321D01*
X1248538Y1548708D01*
X1247678Y1545873D01*
X1247387Y1542925D01*
X1247678Y1539977D01*
X1248538Y1537142D01*
X1249934Y1534529D01*
X1251814Y1532238D01*
X1254104Y1530359D01*
X1256717Y1528963D01*
X1259552Y1528103D01*
X1262500Y1527812D01*
X1267395D01*
Y1517500D01*
X1257848Y1507953D01*
X1255924Y1509429D01*
X1252874Y1510692D01*
X1249600Y1511123D01*
X1246326Y1510692D01*
X1243276Y1509429D01*
X1240656Y1507419D01*
X1238646Y1504799D01*
X1237383Y1501749D01*
X1236952Y1498475D01*
X1237383Y1495201D01*
X1238646Y1492151D01*
X1240656Y1489531D01*
X1243276Y1487521D01*
X1246326Y1486258D01*
X1249600Y1485827D01*
X1252874Y1486258D01*
X1255924Y1487521D01*
X1258544Y1489531D01*
X1259621Y1490935D01*
X1261093Y1491129D01*
X1261630Y1491351D01*
X1262927Y1491889D01*
X1264503Y1493097D01*
X1280378Y1508972D01*
X1281586Y1510547D01*
X1281966Y1511464D01*
X1282346Y1512381D01*
X1282605Y1514350D01*
Y1527812D01*
X1287500D01*
X1290448Y1528103D01*
X1293283Y1528963D01*
X1295896Y1530359D01*
X1298186Y1532238D01*
X1300066Y1534529D01*
X1301462Y1537142D01*
X1302322Y1539977D01*
X1302613Y1542925D01*
X1302322Y1545873D01*
X1301462Y1548708D01*
X1300066Y1551321D01*
X1298186Y1553611D01*
X1295896Y1555491D01*
X1293283Y1556887D01*
X1290448Y1557747D01*
X1287500Y1558038D01*
D02*
G37*
G36*
X1395650Y1509506D02*
X1394250D01*
Y1503475D01*
X1400381D01*
Y1504775D01*
X1400021Y1506585D01*
X1398995Y1508120D01*
X1397460Y1509146D01*
X1395650Y1509506D01*
D02*
G37*
G36*
X1184800Y1569033D02*
X1184800D01*
Y1564375D01*
X1190660D01*
X1190490Y1565232D01*
X1189155Y1567229D01*
X1187157Y1568564D01*
X1184800Y1569033D01*
D02*
G37*
G36*
X1174800D02*
X1172443Y1568564D01*
X1170445Y1567229D01*
X1169110Y1565232D01*
X1168940Y1564375D01*
X1174800D01*
Y1569033D01*
D02*
G37*
G36*
X1241909Y1567925D02*
X1233000D01*
Y1548820D01*
X1234955Y1549629D01*
X1237835Y1551840D01*
X1240045Y1554720D01*
X1241435Y1558075D01*
X1241909Y1561675D01*
Y1567925D01*
D02*
G37*
G36*
X1508600Y1380314D02*
Y1376475D01*
X1512439D01*
X1512405Y1376558D01*
X1510789Y1378664D01*
X1508683Y1380280D01*
X1508600Y1380314D01*
D02*
G37*
G36*
X1358900Y1302975D02*
X1354292D01*
X1354475Y1302533D01*
X1356205Y1300279D01*
X1358458Y1298550D01*
X1358900Y1298367D01*
Y1302975D01*
D02*
G37*
G36*
X1206500D02*
X1201892D01*
X1202075Y1302533D01*
X1203804Y1300279D01*
X1206058Y1298550D01*
X1206500Y1298367D01*
Y1302975D01*
D02*
G37*
G36*
X1313100Y1343501D02*
X1310479Y1343156D01*
X1308037Y1342145D01*
X1305939Y1340535D01*
X1304330Y1338438D01*
X1303318Y1335996D01*
X1302973Y1333375D01*
X1303318Y1330754D01*
X1304330Y1328312D01*
X1305939Y1326214D01*
X1308037Y1324605D01*
X1310479Y1323593D01*
X1313100Y1323248D01*
X1315721Y1323593D01*
X1318163Y1324605D01*
X1320261Y1326214D01*
X1321164Y1327391D01*
X1322827Y1327493D01*
X1332299Y1318021D01*
X1332216Y1316754D01*
X1330804Y1315670D01*
X1329075Y1313416D01*
X1327988Y1310792D01*
X1327617Y1307975D01*
X1327988Y1305158D01*
X1329075Y1302533D01*
X1330804Y1300279D01*
X1333058Y1298550D01*
X1335683Y1297463D01*
X1338500Y1297092D01*
X1341317Y1297463D01*
X1343941Y1298550D01*
X1346196Y1300279D01*
X1347925Y1302533D01*
X1349012Y1305158D01*
X1349383Y1307975D01*
X1349012Y1310792D01*
X1347925Y1313416D01*
X1346196Y1315670D01*
X1343941Y1317400D01*
X1343639Y1317525D01*
Y1319087D01*
X1343248Y1321054D01*
X1342134Y1322721D01*
X1327846Y1337009D01*
X1326179Y1338122D01*
X1324212Y1338514D01*
X1321812D01*
X1320261Y1340535D01*
X1318163Y1342145D01*
X1315721Y1343156D01*
X1313100Y1343501D01*
D02*
G37*
G36*
X1478200Y1330842D02*
X1475569Y1330495D01*
X1473116Y1329480D01*
X1471011Y1327864D01*
X1469395Y1325758D01*
X1468380Y1323306D01*
X1468033Y1320675D01*
X1468380Y1318044D01*
X1469395Y1315591D01*
X1471011Y1313486D01*
X1473116Y1311870D01*
X1475569Y1310854D01*
X1478200Y1310508D01*
X1480831Y1310854D01*
X1483284Y1311870D01*
X1485389Y1313486D01*
X1487005Y1315591D01*
X1488020Y1318044D01*
X1488367Y1320675D01*
X1488020Y1323306D01*
X1487005Y1325758D01*
X1485389Y1327864D01*
X1483284Y1329480D01*
X1480831Y1330495D01*
X1478200Y1330842D01*
D02*
G37*
G36*
X1373508Y1302975D02*
X1368900D01*
Y1298367D01*
X1369341Y1298550D01*
X1371595Y1300279D01*
X1373325Y1302533D01*
X1373508Y1302975D01*
D02*
G37*
G36*
X1221108D02*
X1216500D01*
Y1298367D01*
X1216942Y1298550D01*
X1219195Y1300279D01*
X1220925Y1302533D01*
X1221108Y1302975D01*
D02*
G37*
G36*
X1444200Y1288183D02*
Y1287575D01*
X1444606D01*
X1444200Y1288183D01*
D02*
G37*
G36*
X1143238Y1577265D02*
X1068625Y1577265D01*
X1067634Y1577068D01*
X1066794Y1576506D01*
X1057269Y1566981D01*
X1056707Y1566141D01*
X1056510Y1565150D01*
X1056510Y1469900D01*
X1056707Y1468909D01*
X1057269Y1468069D01*
X1063619Y1461719D01*
X1064459Y1461157D01*
X1065450Y1460960D01*
X1167050D01*
X1168041Y1461157D01*
X1168881Y1461719D01*
X1175231Y1468069D01*
X1175793Y1468909D01*
X1175990Y1469900D01*
Y1482600D01*
X1175990Y1501650D01*
Y1501650D01*
Y1501650D01*
X1175872Y1502241D01*
X1175793Y1502641D01*
X1175793Y1502641D01*
Y1502641D01*
X1175655Y1502847D01*
X1175740Y1503202D01*
X1176334Y1504117D01*
X1184800D01*
X1187157Y1504585D01*
X1189155Y1505920D01*
X1189321Y1506170D01*
X1194950D01*
X1233422Y1467697D01*
X1234997Y1466489D01*
X1235757Y1466174D01*
X1236832Y1465729D01*
X1238800Y1465470D01*
X1344794D01*
X1346521Y1464755D01*
X1348750Y1464461D01*
X1353821D01*
X1383282Y1435000D01*
Y1366380D01*
X1213087D01*
X1211119Y1366121D01*
X1210582Y1365898D01*
X1209285Y1365361D01*
X1207710Y1364153D01*
X1180722Y1337165D01*
X1179514Y1335590D01*
X1178977Y1334293D01*
X1178754Y1333756D01*
X1178495Y1331787D01*
Y1315740D01*
X1178404Y1315670D01*
X1176675Y1313416D01*
X1175588Y1310792D01*
X1175217Y1307975D01*
X1175588Y1305158D01*
X1176675Y1302533D01*
X1178404Y1300279D01*
X1180658Y1298550D01*
X1183283Y1297463D01*
X1186100Y1297092D01*
X1188917Y1297463D01*
X1191542Y1298550D01*
X1193795Y1300279D01*
X1195525Y1302533D01*
X1196612Y1305158D01*
X1196983Y1307975D01*
X1196612Y1310792D01*
X1195525Y1313416D01*
X1193795Y1315670D01*
X1193705Y1315740D01*
Y1328637D01*
X1216238Y1351170D01*
X1383282D01*
Y1296837D01*
X1333122Y1246677D01*
X1331914Y1245102D01*
X1331377Y1243805D01*
X1331154Y1243268D01*
X1330895Y1241300D01*
Y1232006D01*
X1329730Y1230488D01*
X1328718Y1228046D01*
X1328373Y1225425D01*
X1328718Y1222804D01*
X1329730Y1220362D01*
X1330895Y1218844D01*
Y1187556D01*
X1329730Y1186038D01*
X1328718Y1183596D01*
X1328373Y1180975D01*
X1328718Y1178354D01*
X1329730Y1175912D01*
X1330895Y1174393D01*
Y1124122D01*
X1329695Y1122558D01*
X1328680Y1120106D01*
X1328333Y1117475D01*
X1328680Y1114844D01*
X1329695Y1112391D01*
X1330895Y1110828D01*
Y1098722D01*
X1329695Y1097158D01*
X1328680Y1094706D01*
X1328333Y1092075D01*
X1328680Y1089444D01*
X1329695Y1086991D01*
X1331311Y1084886D01*
X1333416Y1083270D01*
X1335869Y1082254D01*
X1338500Y1081908D01*
X1341131Y1082254D01*
X1343584Y1083270D01*
X1345689Y1084886D01*
X1347305Y1086991D01*
X1348320Y1089444D01*
X1348667Y1092075D01*
X1348320Y1094706D01*
X1347305Y1097158D01*
X1346105Y1098722D01*
Y1110828D01*
X1347305Y1112391D01*
X1348320Y1114844D01*
X1348667Y1117475D01*
X1348320Y1120106D01*
X1347305Y1122558D01*
X1346105Y1124122D01*
Y1174393D01*
X1347270Y1175912D01*
X1348282Y1178354D01*
X1348627Y1180975D01*
X1348282Y1183596D01*
X1347270Y1186038D01*
X1346105Y1187556D01*
Y1218844D01*
X1347270Y1220362D01*
X1348282Y1222804D01*
X1348627Y1225425D01*
X1348282Y1228046D01*
X1347270Y1230488D01*
X1346105Y1232006D01*
Y1238150D01*
X1394219Y1286264D01*
X1400641Y1279841D01*
X1402308Y1278727D01*
X1404275Y1278336D01*
X1415650D01*
X1416626Y1277684D01*
X1418300Y1277351D01*
X1423800D01*
X1425474Y1277684D01*
X1426893Y1278632D01*
X1427841Y1280051D01*
X1428174Y1281725D01*
Y1285225D01*
X1427841Y1286899D01*
X1426893Y1288318D01*
X1425474Y1289266D01*
X1423800Y1289599D01*
X1418300D01*
X1416626Y1289266D01*
X1415650Y1288614D01*
X1406404D01*
X1398493Y1296525D01*
Y1438150D01*
X1398233Y1440118D01*
X1398011Y1440655D01*
X1397474Y1441952D01*
X1396265Y1443528D01*
X1365158Y1474634D01*
X1365070Y1475304D01*
X1364210Y1477382D01*
X1362841Y1479166D01*
X1361057Y1480535D01*
X1360355Y1480825D01*
Y1488402D01*
X1360995Y1488830D01*
X1362021Y1490365D01*
X1362381Y1492175D01*
Y1504775D01*
X1362021Y1506585D01*
X1360995Y1508120D01*
X1359460Y1509146D01*
X1357650Y1509506D01*
X1344850D01*
X1343040Y1509146D01*
X1341505Y1508120D01*
X1340479Y1506585D01*
X1340379Y1506080D01*
X1310371D01*
X1309344Y1507419D01*
X1306724Y1509429D01*
X1303674Y1510692D01*
X1300400Y1511123D01*
X1297126Y1510692D01*
X1294076Y1509429D01*
X1291456Y1507419D01*
X1289446Y1504799D01*
X1288183Y1501749D01*
X1287752Y1498475D01*
X1288183Y1495201D01*
X1289446Y1492151D01*
X1291456Y1489531D01*
X1294076Y1487521D01*
X1297126Y1486258D01*
X1300400Y1485827D01*
X1303674Y1486258D01*
X1306724Y1487521D01*
X1309344Y1489531D01*
X1310371Y1490870D01*
X1340379D01*
X1340479Y1490365D01*
X1341505Y1488830D01*
X1343040Y1487804D01*
X1344850Y1487444D01*
X1345145D01*
Y1480825D01*
X1344794Y1480680D01*
X1241950D01*
X1203478Y1519153D01*
X1201902Y1520361D01*
X1200605Y1520898D01*
X1200068Y1521121D01*
X1198100Y1521380D01*
X1189321D01*
X1189155Y1521629D01*
X1189005Y1521729D01*
X1188881Y1522993D01*
X1192694Y1526806D01*
X1193255Y1527646D01*
X1193452Y1528637D01*
X1193452Y1542925D01*
Y1542925D01*
X1193255Y1543916D01*
X1192694Y1544756D01*
X1189519Y1547931D01*
X1189519Y1547931D01*
X1188679Y1548492D01*
X1187688Y1548690D01*
X1186147D01*
X1186022Y1549960D01*
X1187157Y1550185D01*
X1189155Y1551520D01*
X1190490Y1553518D01*
X1190660Y1554375D01*
X1179800D01*
X1168795D01*
X1167756Y1553819D01*
X1145069Y1576506D01*
X1144229Y1577068D01*
X1143238Y1577265D01*
D02*
G37*
G36*
X1444606Y1277575D02*
X1439200D01*
X1433794D01*
X1434120Y1277087D01*
X1434357Y1275718D01*
X1433409Y1274299D01*
X1433302Y1273760D01*
X1426932D01*
X1426893Y1273818D01*
X1425474Y1274766D01*
X1423800Y1275099D01*
X1418300D01*
X1416626Y1274766D01*
X1415207Y1273818D01*
X1415168Y1273760D01*
X1395650D01*
X1394163Y1273464D01*
X1392903Y1272622D01*
X1380203Y1259922D01*
X1379361Y1258661D01*
X1379065Y1257175D01*
Y1201538D01*
X1377892Y1201052D01*
X1372997Y1205947D01*
X1371737Y1206789D01*
X1370250Y1207085D01*
X1369983D01*
X1369495Y1208263D01*
X1367886Y1210360D01*
X1365788Y1211970D01*
X1363346Y1212981D01*
X1360725Y1213326D01*
X1358104Y1212981D01*
X1355662Y1211970D01*
X1353564Y1210360D01*
X1351955Y1208263D01*
X1350943Y1205821D01*
X1350598Y1203200D01*
X1350943Y1200579D01*
X1351955Y1198137D01*
X1353564Y1196039D01*
X1355662Y1194430D01*
X1358104Y1193418D01*
X1360725Y1193073D01*
X1363346Y1193418D01*
X1365788Y1194430D01*
X1367886Y1196039D01*
X1368856Y1197304D01*
X1370522Y1197435D01*
X1372715Y1195241D01*
Y1124631D01*
X1371445Y1124200D01*
X1371089Y1124664D01*
X1368983Y1126280D01*
X1368900Y1126314D01*
Y1117475D01*
Y1108635D01*
X1368983Y1108670D01*
X1371089Y1110286D01*
X1371445Y1110750D01*
X1372715Y1110319D01*
Y1104775D01*
X1373011Y1103288D01*
X1373853Y1102028D01*
X1379976Y1095905D01*
X1379480Y1094706D01*
X1379133Y1092075D01*
X1379480Y1089444D01*
X1380495Y1086991D01*
X1382111Y1084886D01*
X1384216Y1083270D01*
X1386669Y1082254D01*
X1389300Y1081908D01*
X1391931Y1082254D01*
X1394384Y1083270D01*
X1396489Y1084886D01*
X1398105Y1086991D01*
X1399120Y1089444D01*
X1399467Y1092075D01*
X1399120Y1094706D01*
X1398105Y1097158D01*
X1396489Y1099264D01*
X1394384Y1100880D01*
X1391931Y1101895D01*
X1389300Y1102242D01*
X1386669Y1101895D01*
X1385470Y1101399D01*
X1380485Y1106384D01*
Y1110319D01*
X1381755Y1110750D01*
X1382111Y1110286D01*
X1384216Y1108670D01*
X1386669Y1107654D01*
X1389300Y1107308D01*
X1391931Y1107654D01*
X1394384Y1108670D01*
X1396489Y1110286D01*
X1398105Y1112391D01*
X1399120Y1114844D01*
X1399467Y1117475D01*
X1399120Y1120106D01*
X1398105Y1122558D01*
X1396489Y1124664D01*
X1394384Y1126280D01*
X1393185Y1126776D01*
Y1141225D01*
X1394455Y1141751D01*
X1408903Y1127303D01*
X1408776Y1125635D01*
X1407511Y1124664D01*
X1405895Y1122558D01*
X1404879Y1120106D01*
X1404533Y1117475D01*
X1404879Y1114844D01*
X1405895Y1112391D01*
X1407511Y1110286D01*
X1409617Y1108670D01*
X1412069Y1107654D01*
X1414700Y1107308D01*
X1417331Y1107654D01*
X1419783Y1108670D01*
X1421889Y1110286D01*
X1422245Y1110750D01*
X1423515Y1110319D01*
Y1106384D01*
X1418530Y1101399D01*
X1417331Y1101895D01*
X1414700Y1102242D01*
X1412069Y1101895D01*
X1409617Y1100880D01*
X1407511Y1099264D01*
X1405895Y1097158D01*
X1404879Y1094706D01*
X1404533Y1092075D01*
X1404879Y1089444D01*
X1405895Y1086991D01*
X1407511Y1084886D01*
X1409617Y1083270D01*
X1412069Y1082254D01*
X1414700Y1081908D01*
X1417331Y1082254D01*
X1419783Y1083270D01*
X1421889Y1084886D01*
X1423505Y1086991D01*
X1424521Y1089444D01*
X1424867Y1092075D01*
X1424521Y1094706D01*
X1424024Y1095905D01*
X1430147Y1102028D01*
X1430989Y1103288D01*
X1431285Y1104775D01*
Y1107395D01*
X1435100D01*
Y1117475D01*
Y1127555D01*
X1431174D01*
X1431038Y1128240D01*
X1430989Y1128486D01*
X1430147Y1129747D01*
X1424935Y1134959D01*
Y1148776D01*
X1425474Y1148884D01*
X1426893Y1149832D01*
X1427841Y1151251D01*
X1428174Y1152925D01*
Y1156305D01*
X1432260Y1160391D01*
X1433346Y1159681D01*
X1433076Y1158325D01*
Y1152825D01*
X1433409Y1151151D01*
X1434200Y1149967D01*
Y1155575D01*
X1439200D01*
Y1160575D01*
X1444606D01*
X1444280Y1161063D01*
X1444043Y1162432D01*
X1444991Y1163851D01*
X1445324Y1165525D01*
Y1171025D01*
X1444991Y1172699D01*
X1444043Y1174118D01*
X1442624Y1175066D01*
X1440950Y1175399D01*
X1437450D01*
X1435776Y1175066D01*
X1434357Y1174118D01*
X1433409Y1172699D01*
X1433246Y1171880D01*
X1433163Y1171864D01*
X1431903Y1171022D01*
X1429444Y1168563D01*
X1428174Y1169089D01*
Y1170925D01*
X1427841Y1172599D01*
X1426893Y1174018D01*
X1425474Y1174966D01*
X1423800Y1175299D01*
X1421293D01*
X1411984Y1184609D01*
X1411124Y1185183D01*
X1410770Y1186038D01*
X1409161Y1188136D01*
X1407063Y1189745D01*
X1404621Y1190756D01*
X1402000Y1191102D01*
X1399379Y1190756D01*
X1396937Y1189745D01*
X1394839Y1188136D01*
X1394455Y1187634D01*
X1393185Y1188065D01*
Y1196109D01*
X1394455Y1196541D01*
X1394839Y1196039D01*
X1396937Y1194430D01*
X1399379Y1193418D01*
X1402000Y1193073D01*
X1404621Y1193418D01*
X1405800Y1193906D01*
X1408778Y1190928D01*
X1410038Y1190086D01*
X1411525Y1189790D01*
X1414171D01*
X1414259Y1189351D01*
X1415207Y1187932D01*
X1416626Y1186984D01*
X1418300Y1186651D01*
X1423800D01*
X1425474Y1186984D01*
X1426893Y1187932D01*
X1427841Y1189351D01*
X1427928Y1189790D01*
X1433302D01*
X1433409Y1189251D01*
X1434357Y1187832D01*
X1435776Y1186884D01*
X1437450Y1186551D01*
X1440950D01*
X1442624Y1186884D01*
X1444043Y1187832D01*
X1444991Y1189251D01*
X1445324Y1190925D01*
Y1196425D01*
X1444991Y1198099D01*
X1444280Y1199163D01*
X1444043Y1200532D01*
X1444606Y1201375D01*
X1439200D01*
X1433794D01*
X1434357Y1200532D01*
X1434120Y1199163D01*
X1433409Y1198099D01*
X1433302Y1197560D01*
X1426932D01*
X1426893Y1197618D01*
X1425474Y1198566D01*
X1423800Y1198899D01*
X1418300D01*
X1416626Y1198566D01*
X1415207Y1197618D01*
X1415168Y1197560D01*
X1413134D01*
X1411293Y1199400D01*
X1411782Y1200579D01*
X1412127Y1203200D01*
X1411782Y1205821D01*
X1410770Y1208263D01*
X1409161Y1210360D01*
X1407063Y1211970D01*
X1404621Y1212981D01*
X1402000Y1213326D01*
X1399379Y1212981D01*
X1396937Y1211970D01*
X1394839Y1210360D01*
X1394455Y1209859D01*
X1393185Y1210290D01*
Y1218335D01*
X1394455Y1218766D01*
X1394839Y1218264D01*
X1396937Y1216655D01*
X1399379Y1215643D01*
X1402000Y1215298D01*
X1404621Y1215643D01*
X1407063Y1216655D01*
X1409161Y1218264D01*
X1410712Y1220286D01*
X1415911D01*
Y1212588D01*
X1415207Y1212118D01*
X1414259Y1210699D01*
X1413926Y1209025D01*
Y1205525D01*
X1414259Y1203851D01*
X1415207Y1202432D01*
X1416626Y1201484D01*
X1418300Y1201151D01*
X1423800D01*
X1425474Y1201484D01*
X1426893Y1202432D01*
X1427841Y1203851D01*
X1428174Y1205525D01*
Y1209025D01*
X1427841Y1210699D01*
X1426893Y1212118D01*
X1426189Y1212588D01*
Y1225561D01*
X1426893Y1226032D01*
X1427841Y1227451D01*
X1428174Y1229125D01*
Y1232625D01*
X1427841Y1234299D01*
X1426893Y1235718D01*
X1425474Y1236666D01*
X1423800Y1236999D01*
X1418300D01*
X1416626Y1236666D01*
X1415207Y1235718D01*
X1414259Y1234299D01*
X1413926Y1232625D01*
Y1230564D01*
X1410712D01*
X1409161Y1232586D01*
X1407063Y1234195D01*
X1404621Y1235206D01*
X1402000Y1235552D01*
X1400119Y1235304D01*
X1399525Y1236507D01*
X1403609Y1240590D01*
X1415168D01*
X1415207Y1240532D01*
X1416626Y1239584D01*
X1418300Y1239251D01*
X1423800D01*
X1425474Y1239584D01*
X1426893Y1240532D01*
X1426932Y1240590D01*
X1433302D01*
X1433409Y1240051D01*
X1434120Y1238987D01*
X1434357Y1237618D01*
X1433794Y1236775D01*
X1439200D01*
X1444606D01*
X1444280Y1237263D01*
X1444043Y1238632D01*
X1444991Y1240051D01*
X1445324Y1241725D01*
Y1247225D01*
X1444991Y1248899D01*
X1444043Y1250318D01*
X1442624Y1251266D01*
X1440950Y1251599D01*
X1437450D01*
X1435776Y1251266D01*
X1434357Y1250318D01*
X1433409Y1248899D01*
X1433302Y1248360D01*
X1427928D01*
X1427841Y1248799D01*
X1426893Y1250218D01*
X1425474Y1251166D01*
X1423800Y1251499D01*
X1418300D01*
X1416626Y1251166D01*
X1415207Y1250218D01*
X1414259Y1248799D01*
X1414171Y1248360D01*
X1402000D01*
X1400513Y1248064D01*
X1399253Y1247222D01*
X1388008Y1235977D01*
X1386835Y1236463D01*
Y1255566D01*
X1397259Y1265990D01*
X1414171D01*
X1414259Y1265551D01*
X1415207Y1264132D01*
X1416626Y1263184D01*
X1418300Y1262851D01*
X1423800D01*
X1425474Y1263184D01*
X1426893Y1264132D01*
X1427841Y1265551D01*
X1427928Y1265990D01*
X1433302D01*
X1433409Y1265451D01*
X1434357Y1264032D01*
X1435776Y1263084D01*
X1437450Y1262751D01*
X1440950D01*
X1442624Y1263084D01*
X1444043Y1264032D01*
X1444991Y1265451D01*
X1445324Y1267125D01*
Y1272625D01*
X1444991Y1274299D01*
X1444043Y1275718D01*
X1444280Y1277087D01*
X1444606Y1277575D01*
D02*
G37*
G36*
X1503600Y1280042D02*
X1500969Y1279695D01*
X1498517Y1278680D01*
X1496411Y1277064D01*
X1494795Y1274958D01*
X1493779Y1272506D01*
X1493433Y1269875D01*
X1493779Y1267243D01*
X1494795Y1264791D01*
X1496411Y1262686D01*
X1498517Y1261070D01*
X1500969Y1260054D01*
X1503600Y1259708D01*
X1506231Y1260054D01*
X1508683Y1261070D01*
X1510789Y1262686D01*
X1512405Y1264791D01*
X1513421Y1267243D01*
X1513767Y1269875D01*
X1513421Y1272506D01*
X1512405Y1274958D01*
X1510789Y1277064D01*
X1508683Y1278680D01*
X1506231Y1279695D01*
X1503600Y1280042D01*
D02*
G37*
G36*
X1434200Y1288183D02*
X1433794Y1287575D01*
X1434200D01*
Y1288183D01*
D02*
G37*
G36*
X1503600Y1305442D02*
X1500969Y1305095D01*
X1498517Y1304080D01*
X1496411Y1302464D01*
X1494795Y1300358D01*
X1493779Y1297906D01*
X1493433Y1295275D01*
X1493779Y1292643D01*
X1494795Y1290191D01*
X1496411Y1288086D01*
X1498517Y1286470D01*
X1500969Y1285454D01*
X1503600Y1285108D01*
X1506231Y1285454D01*
X1508683Y1286470D01*
X1510789Y1288086D01*
X1512405Y1290191D01*
X1513421Y1292643D01*
X1513767Y1295275D01*
X1513421Y1297906D01*
X1512405Y1300358D01*
X1510789Y1302464D01*
X1508683Y1304080D01*
X1506231Y1305095D01*
X1503600Y1305442D01*
D02*
G37*
G36*
X1478200D02*
X1475569Y1305095D01*
X1473116Y1304080D01*
X1471011Y1302464D01*
X1469395Y1300358D01*
X1468380Y1297906D01*
X1468033Y1295275D01*
X1468380Y1292643D01*
X1469395Y1290191D01*
X1471011Y1288086D01*
X1473116Y1286470D01*
X1475569Y1285454D01*
X1478200Y1285108D01*
X1480831Y1285454D01*
X1483284Y1286470D01*
X1485389Y1288086D01*
X1487005Y1290191D01*
X1488020Y1292643D01*
X1488367Y1295275D01*
X1488020Y1297906D01*
X1487005Y1300358D01*
X1485389Y1302464D01*
X1483284Y1304080D01*
X1480831Y1305095D01*
X1478200Y1305442D01*
D02*
G37*
G36*
X1488280Y1381555D02*
X1468120D01*
Y1361395D01*
X1488280D01*
Y1381555D01*
D02*
G37*
G36*
X1363900Y1445858D02*
X1361083Y1445487D01*
X1358458Y1444400D01*
X1356205Y1442670D01*
X1354475Y1440416D01*
X1353388Y1437792D01*
X1353017Y1434975D01*
X1353388Y1432158D01*
X1354475Y1429533D01*
X1356205Y1427279D01*
X1358458Y1425550D01*
X1360015Y1424905D01*
Y1398484D01*
X1343241Y1381709D01*
X1205150D01*
X1203663Y1381414D01*
X1202403Y1380572D01*
X1133691Y1311859D01*
X1078956D01*
X1078525Y1313129D01*
X1078989Y1313486D01*
X1080605Y1315591D01*
X1081620Y1318044D01*
X1081967Y1320675D01*
X1081620Y1323306D01*
X1080605Y1325758D01*
X1078989Y1327864D01*
X1078525Y1328220D01*
X1078956Y1329490D01*
X1128950D01*
X1130437Y1329786D01*
X1131697Y1330628D01*
X1150550Y1349482D01*
X1151729Y1348993D01*
X1154350Y1348648D01*
X1156971Y1348993D01*
X1159413Y1350005D01*
X1161511Y1351614D01*
X1163120Y1353712D01*
X1164132Y1356154D01*
X1164477Y1358775D01*
X1164132Y1361396D01*
X1163120Y1363838D01*
X1161511Y1365936D01*
X1159413Y1367545D01*
X1156971Y1368556D01*
X1154350Y1368902D01*
X1151729Y1368556D01*
X1149287Y1367545D01*
X1147189Y1365936D01*
X1145580Y1363838D01*
X1144568Y1361396D01*
X1144223Y1358775D01*
X1144568Y1356154D01*
X1145057Y1354975D01*
X1127341Y1337260D01*
X1078956D01*
X1078525Y1338530D01*
X1078989Y1338886D01*
X1080605Y1340991D01*
X1080639Y1341075D01*
X1071800D01*
X1062961D01*
X1062995Y1340991D01*
X1064611Y1338886D01*
X1065075Y1338530D01*
X1064644Y1337260D01*
X1059100D01*
X1057613Y1336964D01*
X1056353Y1336122D01*
X1050230Y1329999D01*
X1049031Y1330495D01*
X1046400Y1330842D01*
X1043769Y1330495D01*
X1041317Y1329480D01*
X1039211Y1327864D01*
X1037595Y1325758D01*
X1036580Y1323306D01*
X1036233Y1320675D01*
X1036580Y1318044D01*
X1037595Y1315591D01*
X1039211Y1313486D01*
X1041317Y1311870D01*
X1043769Y1310854D01*
X1046400Y1310508D01*
X1049031Y1310854D01*
X1051484Y1311870D01*
X1053589Y1313486D01*
X1055205Y1315591D01*
X1056220Y1318044D01*
X1056567Y1320675D01*
X1056220Y1323306D01*
X1055724Y1324505D01*
X1060709Y1329490D01*
X1064644D01*
X1065075Y1328220D01*
X1064611Y1327864D01*
X1062995Y1325758D01*
X1061980Y1323306D01*
X1061633Y1320675D01*
X1061980Y1318044D01*
X1062995Y1315591D01*
X1064611Y1313486D01*
X1065075Y1313129D01*
X1064644Y1311859D01*
X1059100D01*
X1057613Y1311564D01*
X1056353Y1310722D01*
X1050230Y1304599D01*
X1049031Y1305095D01*
X1046400Y1305442D01*
X1043769Y1305095D01*
X1041317Y1304080D01*
X1039211Y1302464D01*
X1037595Y1300358D01*
X1036580Y1297906D01*
X1036233Y1295275D01*
X1036580Y1292643D01*
X1037595Y1290191D01*
X1039211Y1288086D01*
X1041317Y1286470D01*
X1043769Y1285454D01*
X1046400Y1285108D01*
X1049031Y1285454D01*
X1051484Y1286470D01*
X1053589Y1288086D01*
X1055205Y1290191D01*
X1056220Y1292643D01*
X1056567Y1295275D01*
X1056220Y1297906D01*
X1055724Y1299105D01*
X1060709Y1304090D01*
X1064644D01*
X1065075Y1302820D01*
X1064611Y1302464D01*
X1062995Y1300358D01*
X1061980Y1297906D01*
X1061633Y1295275D01*
X1061980Y1292643D01*
X1062995Y1290191D01*
X1064611Y1288086D01*
X1066717Y1286470D01*
X1069169Y1285454D01*
X1071800Y1285108D01*
X1074431Y1285454D01*
X1076883Y1286470D01*
X1078989Y1288086D01*
X1080605Y1290191D01*
X1081620Y1292643D01*
X1081967Y1295275D01*
X1081620Y1297906D01*
X1080605Y1300358D01*
X1078989Y1302464D01*
X1078525Y1302820D01*
X1078956Y1304090D01*
X1135300D01*
X1136787Y1304386D01*
X1138047Y1305228D01*
X1206759Y1373940D01*
X1344850D01*
X1346337Y1374236D01*
X1347597Y1375078D01*
X1366647Y1394128D01*
X1367489Y1395388D01*
X1367785Y1396875D01*
Y1424905D01*
X1369341Y1425550D01*
X1371595Y1427279D01*
X1373325Y1429533D01*
X1374412Y1432158D01*
X1374783Y1434975D01*
X1374412Y1437792D01*
X1373325Y1440416D01*
X1371595Y1442670D01*
X1369341Y1444400D01*
X1366717Y1445487D01*
X1363900Y1445858D01*
D02*
G37*
G36*
X1503600Y1356242D02*
X1500969Y1355895D01*
X1498517Y1354880D01*
X1496411Y1353264D01*
X1494795Y1351158D01*
X1493779Y1348706D01*
X1493433Y1346075D01*
X1493779Y1343443D01*
X1494795Y1340991D01*
X1496411Y1338886D01*
X1498517Y1337270D01*
X1500969Y1336254D01*
X1503600Y1335908D01*
X1506231Y1336254D01*
X1508683Y1337270D01*
X1510789Y1338886D01*
X1512405Y1340991D01*
X1513421Y1343443D01*
X1513767Y1346075D01*
X1513421Y1348706D01*
X1512405Y1351158D01*
X1510789Y1353264D01*
X1508683Y1354880D01*
X1506231Y1355895D01*
X1503600Y1356242D01*
D02*
G37*
G36*
X1498600Y1380314D02*
X1498517Y1380280D01*
X1496411Y1378664D01*
X1494795Y1376558D01*
X1494760Y1376475D01*
X1498600D01*
Y1380314D01*
D02*
G37*
G36*
X1512439Y1366475D02*
X1508600D01*
Y1362635D01*
X1508683Y1362670D01*
X1510789Y1364286D01*
X1512405Y1366391D01*
X1512439Y1366475D01*
D02*
G37*
G36*
X1498600D02*
X1494761D01*
X1494795Y1366391D01*
X1496411Y1364286D01*
X1498517Y1362670D01*
X1498600Y1362635D01*
Y1366475D01*
D02*
G37*
G36*
X1358900Y1317583D02*
X1358458Y1317400D01*
X1356205Y1315670D01*
X1354475Y1313416D01*
X1354292Y1312975D01*
X1358900D01*
Y1317583D01*
D02*
G37*
G36*
X1206500D02*
X1206058Y1317400D01*
X1203804Y1315670D01*
X1202075Y1313416D01*
X1201892Y1312975D01*
X1206500D01*
Y1317583D01*
D02*
G37*
G36*
X1503600Y1330842D02*
X1500969Y1330495D01*
X1498517Y1329480D01*
X1496411Y1327864D01*
X1494795Y1325758D01*
X1493779Y1323306D01*
X1493433Y1320675D01*
X1493779Y1318044D01*
X1494795Y1315591D01*
X1496411Y1313486D01*
X1498517Y1311870D01*
X1500969Y1310854D01*
X1503600Y1310508D01*
X1506231Y1310854D01*
X1508683Y1311870D01*
X1510789Y1313486D01*
X1512405Y1315591D01*
X1513421Y1318044D01*
X1513767Y1320675D01*
X1513421Y1323306D01*
X1512405Y1325758D01*
X1510789Y1327864D01*
X1508683Y1329480D01*
X1506231Y1330495D01*
X1503600Y1330842D01*
D02*
G37*
G36*
X1368900Y1317583D02*
Y1312975D01*
X1373508D01*
X1373325Y1313416D01*
X1371595Y1315670D01*
X1369341Y1317400D01*
X1368900Y1317583D01*
D02*
G37*
G36*
X1478200Y1356242D02*
X1475569Y1355895D01*
X1473116Y1354880D01*
X1471011Y1353264D01*
X1469395Y1351158D01*
X1468380Y1348706D01*
X1468033Y1346075D01*
X1468380Y1343443D01*
X1469395Y1340991D01*
X1471011Y1338886D01*
X1473116Y1337270D01*
X1475569Y1336254D01*
X1478200Y1335908D01*
X1480831Y1336254D01*
X1483284Y1337270D01*
X1485389Y1338886D01*
X1487005Y1340991D01*
X1488020Y1343443D01*
X1488367Y1346075D01*
X1488020Y1348706D01*
X1487005Y1351158D01*
X1485389Y1353264D01*
X1483284Y1354880D01*
X1480831Y1355895D01*
X1478200Y1356242D01*
D02*
G37*
G36*
X1216500Y1317583D02*
Y1312975D01*
X1221108D01*
X1220925Y1313416D01*
X1219195Y1315670D01*
X1216942Y1317400D01*
X1216500Y1317583D01*
D02*
G37*
%LPD*%
G36*
X1171813Y1546100D02*
X1187688Y1546100D01*
X1190863Y1542925D01*
X1190863Y1528637D01*
X1186100Y1523875D01*
X1171812Y1523875D01*
X1168637Y1520700D01*
X1168637Y1506412D01*
X1173400Y1501650D01*
X1173400Y1482600D01*
Y1469900D01*
X1167050Y1463550D01*
X1065450D01*
X1059100Y1469900D01*
X1059100Y1565150D01*
X1068625Y1574675D01*
X1143238Y1574675D01*
X1171813Y1546100D01*
D02*
G37*
D10*
X1421050Y1207275D02*
D03*
Y1192775D02*
D03*
Y1283475D02*
D03*
Y1268975D02*
D03*
Y1169175D02*
D03*
Y1154675D02*
D03*
Y1230875D02*
D03*
Y1245375D02*
D03*
D11*
X1179800Y1513775D02*
D03*
Y1559375D02*
D03*
Y1536575D02*
D03*
D12*
X1113800D02*
D03*
D13*
X1453700Y1155575D02*
D03*
X1439200D02*
D03*
X1439200Y1168275D02*
D03*
X1453700D02*
D03*
X1453700Y1206375D02*
D03*
X1439200D02*
D03*
X1439200Y1193675D02*
D03*
X1453700D02*
D03*
X1453700Y1231775D02*
D03*
X1439200D02*
D03*
X1439200Y1244475D02*
D03*
X1453700D02*
D03*
X1453700Y1282575D02*
D03*
X1439200D02*
D03*
X1439200Y1269875D02*
D03*
X1453700D02*
D03*
D14*
X1389250Y1498475D02*
D03*
X1351250D02*
D03*
D15*
X1249600D02*
X1255950D01*
X1259125D02*
X1275000Y1514350D01*
X1255950Y1498475D02*
X1259125D01*
X1338500Y1241300D02*
X1390887Y1293687D01*
X1338500Y1225425D02*
Y1241300D01*
X1275000Y1514350D02*
Y1542925D01*
X1338500Y1180975D02*
Y1225425D01*
Y1117475D02*
Y1180975D01*
X1186100Y1307975D02*
Y1331787D01*
X1355963Y1473075D02*
X1390887Y1438150D01*
X1352750Y1473075D02*
X1355963D01*
X1071800Y1371475D02*
Y1396875D01*
Y1473075D02*
X1162250D01*
X1238800D02*
X1352750D01*
X1198100Y1513775D02*
X1238800Y1473075D01*
X1179800Y1513775D02*
X1198100D01*
X1306750Y1498475D02*
X1351250D01*
X1352750Y1496975D01*
Y1473075D02*
Y1496975D01*
X1338500Y1092075D02*
Y1117475D01*
X1186100Y1331787D02*
X1213087Y1358775D01*
X1390887D01*
Y1293687D02*
Y1438150D01*
D16*
X1198800Y1257175D02*
X1236900Y1295275D01*
X1198800Y1117475D02*
Y1257175D01*
X1313100Y1276225D02*
Y1307975D01*
X1275000Y1238125D02*
X1313100Y1276225D01*
X1275000Y1117475D02*
Y1238125D01*
X1287700Y1282575D02*
Y1307975D01*
X1249600Y1244475D02*
X1287700Y1282575D01*
X1249600Y1120650D02*
Y1244475D01*
X1262300Y1288925D02*
Y1307975D01*
X1224200Y1250825D02*
X1262300Y1288925D01*
X1224200Y1120650D02*
Y1250825D01*
X1236900Y1295275D02*
Y1307975D01*
D17*
X1390887Y1296862D02*
X1404275Y1283475D01*
X1421050D01*
X1402000Y1180975D02*
X1408350D01*
X1420150Y1169175D01*
X1420600Y1225425D02*
X1421050Y1224975D01*
X1402000Y1225425D02*
X1420600D01*
X1420150Y1169175D02*
X1421050D01*
Y1207275D02*
Y1230875D01*
X1211500Y1434975D02*
X1230550D01*
X1313100Y1409575D02*
Y1434975D01*
X1338500Y1307975D02*
Y1319087D01*
X1324212Y1333375D02*
X1338500Y1319087D01*
X1313100Y1333375D02*
X1324212D01*
X1211500Y1434975D02*
X1236900D01*
X1262300D01*
X1287700D01*
X1313100D01*
X1046400Y1371475D02*
Y1396875D01*
X1065450Y1415925D01*
X1198800D01*
X1211500Y1428625D01*
Y1434975D01*
D18*
X1427400Y1104775D02*
Y1127000D01*
X1421050Y1133350D02*
X1427400Y1127000D01*
X1421050Y1133350D02*
Y1154675D01*
X1389300Y1117475D02*
Y1142875D01*
X1382950Y1149225D02*
X1389300Y1142875D01*
X1382950Y1149225D02*
Y1257175D01*
X1414700Y1117475D02*
Y1127000D01*
X1389300Y1152400D02*
X1414700Y1127000D01*
X1389300Y1152400D02*
Y1231775D01*
X1376600Y1104775D02*
Y1196850D01*
X1370250Y1203200D02*
X1376600Y1196850D01*
X1360725Y1203200D02*
X1370250D01*
X1395650Y1269875D02*
X1421950D01*
X1382950Y1257175D02*
X1395650Y1269875D01*
X1402000Y1244475D02*
X1439200D01*
X1389300Y1231775D02*
X1402000Y1244475D01*
X1414700Y1092075D02*
X1427400Y1104775D01*
X1402000Y1203200D02*
X1411525Y1193675D01*
X1421950D01*
X1376600Y1104775D02*
X1389300Y1092075D01*
X1090850Y1104775D02*
Y1155575D01*
X1078150Y1168275D02*
X1090850Y1155575D01*
X1071800Y1168275D02*
X1078150D01*
X1090850Y1193675D02*
X1109900Y1174625D01*
Y1117475D02*
Y1174625D01*
X1103550Y1092075D02*
X1109900D01*
X1090850Y1104775D02*
X1103550Y1092075D01*
X1434650Y1168275D02*
X1439200D01*
X1421050Y1154675D02*
X1434650Y1168275D01*
X1338500Y1403225D02*
Y1428625D01*
X1325800Y1390525D02*
X1338500Y1403225D01*
X1421950Y1269875D02*
X1439200D01*
X1421050Y1192775D02*
X1421950Y1193675D01*
X1421050Y1268975D02*
X1421950Y1269875D01*
Y1193675D02*
X1439200D01*
X1453700Y1282575D02*
X1453700Y1282575D01*
X1453700Y1269875D02*
Y1282575D01*
Y1269875D02*
X1478200D01*
X1453700Y1231775D02*
X1453700Y1231775D01*
X1453700Y1231775D02*
Y1244475D01*
X1478200D01*
X1453700Y1193675D02*
X1453700Y1193675D01*
Y1206375D01*
X1453700Y1193675D02*
X1478200D01*
X1453700Y1155575D02*
Y1168275D01*
X1453700Y1168275D02*
X1478200D01*
X1071800Y1193675D02*
X1090850D01*
X1046400Y1346075D02*
X1059100Y1358775D01*
X1046400Y1295275D02*
X1059100Y1307975D01*
X1363900Y1396875D02*
Y1434975D01*
X1344850Y1377825D02*
X1363900Y1396875D01*
X1059100Y1358775D02*
X1116250D01*
X1148000Y1390525D01*
X1325800D01*
X1059100Y1307975D02*
X1135300D01*
X1205150Y1377825D01*
X1344850D01*
X1046400Y1320675D02*
X1059100Y1333375D01*
X1128950D01*
X1154350Y1358775D01*
Y1434975D02*
X1186100D01*
D19*
X1363900Y1307975D02*
D03*
X1338500D02*
D03*
X1313100D02*
D03*
X1287700D02*
D03*
X1186100D02*
D03*
X1211500D02*
D03*
X1236900D02*
D03*
X1211500Y1434975D02*
D03*
X1236900D02*
D03*
X1363900D02*
D03*
X1338500D02*
D03*
X1313100D02*
D03*
X1287700D02*
D03*
X1262300Y1307975D02*
D03*
Y1434975D02*
D03*
D20*
X1186100D02*
D03*
D21*
X1198800Y1117475D02*
D03*
X1224200D02*
D03*
X1249600D02*
D03*
X1360725Y1203200D02*
D03*
X1402000D02*
D03*
Y1180975D02*
D03*
X1338500Y1225425D02*
D03*
X1402000D02*
D03*
X1338500Y1180975D02*
D03*
X1313100Y1409575D02*
D03*
Y1333375D02*
D03*
X1071800Y1396875D02*
D03*
Y1473075D02*
D03*
X1154350Y1358775D02*
D03*
Y1434975D02*
D03*
D22*
X1275000Y1117475D02*
D03*
D23*
X1109900D02*
D03*
Y1092075D02*
D03*
X1135300D02*
D03*
X1503600Y1142875D02*
D03*
Y1168275D02*
D03*
Y1193675D02*
D03*
Y1219075D02*
D03*
Y1244475D02*
D03*
Y1269875D02*
D03*
Y1295275D02*
D03*
Y1320675D02*
D03*
Y1346075D02*
D03*
Y1371475D02*
D03*
X1478200Y1142875D02*
D03*
Y1168275D02*
D03*
Y1193675D02*
D03*
Y1219075D02*
D03*
Y1244475D02*
D03*
Y1269875D02*
D03*
Y1295275D02*
D03*
Y1320675D02*
D03*
Y1346075D02*
D03*
X1046400D02*
D03*
Y1320675D02*
D03*
Y1295275D02*
D03*
Y1269875D02*
D03*
Y1244475D02*
D03*
Y1219075D02*
D03*
Y1193675D02*
D03*
Y1168275D02*
D03*
Y1142875D02*
D03*
X1071800Y1371475D02*
D03*
Y1346075D02*
D03*
Y1320675D02*
D03*
Y1295275D02*
D03*
Y1269875D02*
D03*
Y1244475D02*
D03*
Y1219075D02*
D03*
Y1193675D02*
D03*
Y1168275D02*
D03*
Y1142875D02*
D03*
X1440100Y1092075D02*
D03*
X1414700D02*
D03*
X1389300D02*
D03*
X1363900D02*
D03*
X1338500D02*
D03*
X1414700Y1117475D02*
D03*
X1389300D02*
D03*
X1363900D02*
D03*
X1338500D02*
D03*
D24*
X1135300D02*
D03*
X1440100D02*
D03*
D25*
X1478200Y1371475D02*
D03*
X1046400D02*
D03*
D26*
X1228000Y1572925D02*
D03*
D27*
X1275000Y1602925D02*
D03*
D28*
Y1542925D02*
D03*
D29*
X1300400Y1498475D02*
D03*
X1249600D02*
D03*
D30*
X1352750Y1473075D02*
D03*
X1387750D02*
D03*
X1162250D02*
D03*
X1197250D02*
D03*
M02*
