0
SECTION
2
HEADER
9
$INSUNITS
70
4
9
$ACADVER
1
AC1014
9
$HANDSEED
5
FFFF
0
ENDSEC
0
SECTION
2
TABLES
0
TABLE
2
VPORT
5
8
100
AcDbSymbolTable
0
ENDTAB
0
TABLE
2
LTYPE
5
5
100
AcDbSymbolTable
70
2
0
LTYPE
5
14
100
AcDbSymbolTableRecord
100
AcDbLinetypeTableRecord
2
BYBLOCK
70
0
0
LTYPE
5
15
100
AcDbSymbolTableRecord
100
AcDbLinetypeTableRecord
2
BYLAYER
70
0
0
ENDTAB
0
TABLE
2
LAYER
5
2
100
AcDbSymbolTable
70
3
0
LAYER
5
50
100
AcDbSymbolTableRecord
100
AcDbLayerTableRecord
2
0
70
0
6
CONTINUOUS
0
LAYER
5
51
100
AcDbSymbolTableRecord
100
AcDbLayerTableRecord
2
CUTOUTS
70
0
62
1
6
CONTINUOUS
0
LAYER
5
52
100
AcDbSymbolTableRecord
100
AcDbLayerTableRecord
2
PERIMETER
70
0
62
5
6
CONTINUOUS
0
ENDTAB
0
TABLE
2
STYLE
5
3
100
AcDbSymbolTable
70
1
0
STYLE
5
11
100
AcDbSymbolTableRecord
100
AcDbTextStyleTableRecord
2
STANDARD
70
0
0
ENDTAB
0
TABLE
2
VIEW
5
6
100
AcDbSymbolTable
0
ENDTAB
0
TABLE
2
UCS
5
7
100
AcDbSymbolTable
0
ENDTAB
0
TABLE
2
APPID
5
9
100
AcDbSymbolTable
70
1
0
APPID
5
12
100
AcDbSymbolTableRecord
100
AcDbRegAppTableRecord
2
ACAD
70
0
0
ENDTAB
0
TABLE
2
DIMSTYLE
5
A
100
AcDbSymbolTable
0
ENDTAB
0
TABLE
2
BLOCK_RECORD
5
1
100
AcDbSymbolTable
70
2
0
BLOCK_RECORD
5
1F
100
AcDbSymbolTableRecord
100
AcDbBlockTableRecord
2
*MODEL_SPACE
0
BLOCK_RECORD
5
1B
100
AcDbSymbolTableRecord
100
AcDbBlockTableRecord
2
*PAPER_SPACE
0
ENDTAB
0
ENDSEC
0
SECTION
2
BLOCKS
0
BLOCK
5
20
100
AcDbEntity
100
AcDbBlockBegin
2
*MODEL_SPACE
0
ENDBLK
5
21
100
AcDbEntity
100
AcDbBlockEnd
0
BLOCK
5
1C
100
AcDbEntity
100
AcDbBlockBegin
2
*PAPER_SPACE
0
ENDBLK
5
1D
100
AcDbEntity
100
AcDbBlockEnd
0
ENDSEC
0
SECTION
2
ENTITIES
0
CIRCLE
5
100
100
AcDbEntity
8
CUTOUTS
100
AcDbCircle
10
-7.9999999999999716
20
60.000000000000014
30
0
40
1.8500000000000283
210
0
220
0
230
1
0
CIRCLE
5
101
100
AcDbEntity
8
CUTOUTS
100
AcDbCircle
10
-90
20
10.000000000000018
30
0
40
1.8500000000000227
210
0
220
0
230
1
0
CIRCLE
5
102
100
AcDbEntity
8
CUTOUTS
100
AcDbCircle
10
-7.9999999999999716
20
10
30
0
40
1.8500000000000283
210
0
220
0
230
1
0
CIRCLE
5
103
100
AcDbEntity
8
CUTOUTS
100
AcDbCircle
10
-90
20
60.000000000000014
30
0
40
1.8500000000000227
210
0
220
0
230
1
0
LWPOLYLINE
5
104
100
AcDbEntity
8
CUTOUTS
100
AcDbPolyline
90
6
70
1
43
0.0
10
-83.52775681356654
20
67.549999999999912
10
-82.055513627133081
20
65.000000000000043
10
-83.527756813566469
20
62.450000000000152
10
-86.47224318643346
20
62.450000000000124
10
-87.944486372866919
20
64.999999999999986
10
-86.472243186433531
20
67.549999999999869
0
LWPOLYLINE
5
105
100
AcDbEntity
8
CUTOUTS
100
AcDbPolyline
90
6
70
1
43
0.0
10
-83.52775681356654
20
2.4500000000001121
10
-86.472243186433531
20
2.4500000000001263
10
-87.944486372866919
20
5.0000000000000249
10
-86.472243186433388
20
7.5499999999999527
10
-83.527756813566469
20
7.5499999999999092
10
-82.055513627133081
20
4.9999999999999867
0
LWPOLYLINE
5
106
100
AcDbEntity
8
CUTOUTS
100
AcDbPolyline
90
6
70
1
43
0.0
10
-53.527756813566398
20
67.549999999999997
10
-52.055513627132939
20
65
10
-53.52775681356654
20
62.449999999999982
10
-56.472243186433602
20
62.450000000000038
10
-57.944486372867061
20
65.000000000000057
10
-56.472243186433531
20
67.550000000000026
0
LINE
5
107
100
AcDbEntity
8
CUTOUTS
100
AcDbLine
10
-16.556890413681273
20
27.808156030192968
30
0
11
-14.531827599214324
21
24.300644347017808
31
0
0
ARC
5
108
100
AcDbEntity
8
CUTOUTS
100
AcDbCircle
10
-16.999999999999957
20
22.875644347017854
30
0
40
2.849999999999957
210
0
220
0
230
1
100
AcDbArc
50
-150.0000000000008
51
30.000001207417395
0
LINE
5
109
100
AcDbEntity
8
CUTOUTS
100
AcDbLine
10
-19.468172400785591
20
21.45064434701791
30
0
11
-21.49323521525254
21
24.958156030193017
31
0
0
ARC
5
10A
100
AcDbEntity
8
CUTOUTS
100
AcDbCircle
10
-23.999999999999986
20
35.000000000000007
30
0
40
10.349999999999941
210
0
220
0
230
1
100
AcDbArc
50
255.98360715728938
51
284.01639284271022
0
LINE
5
10B
100
AcDbEntity
8
CUTOUTS
100
AcDbLine
10
-26.506764784747503
20
24.958156030193042
30
0
11
-28.531827599214452
21
21.450644347017871
31
0
0
ARC
5
10C
100
AcDbEntity
8
CUTOUTS
100
AcDbCircle
10
-31.000000000000085
20
22.875644347017854
30
0
40
2.8499999999999464
210
0
220
0
230
1
100
AcDbArc
50
149.99999999999829
51
330.00000120741657
0
LINE
5
10D
100
AcDbEntity
8
CUTOUTS
100
AcDbLine
10
-33.468172400785647
20
24.300644347017901
30
0
11
-31.443109586318769
21
27.808156030193061
31
0
0
ARC
5
10E
100
AcDbEntity
8
CUTOUTS
100
AcDbCircle
10
-23.999999999999986
20
35.000000000000007
30
0
40
10.349999999999955
210
0
220
0
230
1
100
AcDbArc
50
195.98360715728975
51
224.01639284270965
0
LINE
5
10F
100
AcDbEntity
8
CUTOUTS
100
AcDbLine
10
-33.949874371066144
20
32.150000000000034
30
0
11
-37.999999999999972
21
32.150000000000063
31
0
0
ARC
5
110
100
AcDbEntity
8
CUTOUTS
100
AcDbCircle
10
-37.999999999999972
20
35
30
0
40
2.8499999999999392
210
0
220
-0
230
1
100
AcDbArc
50
89.999999999998579
51
270
0
LINE
5
111
100
AcDbEntity
8
CUTOUTS
100
AcDbLine
10
-37.999999999999901
20
37.849999999999937
30
0
11
-33.949874371066144
21
37.849999999999973
31
0
0
ARC
5
112
100
AcDbEntity
8
CUTOUTS
100
AcDbCircle
10
-23.999999999999986
20
35.000000000000007
30
0
40
10.349999999999957
210
0
220
0
230
1
100
AcDbArc
50
135.98360715728981
51
164.0163928427103
0
LINE
5
113
100
AcDbEntity
8
CUTOUTS
100
AcDbLine
10
-31.443109586318698
20
42.191843969807024
30
0
11
-33.468172400785576
21
45.699355652982199
31
0
0
ARC
5
114
100
AcDbEntity
8
CUTOUTS
100
AcDbCircle
10
-30.999999999999943
20
47.124355652982146
30
0
40
2.8499999999999548
210
0
220
-0
230
1
100
AcDbArc
50
29.999999999999279
51
209.9999999999992
0
LINE
5
115
100
AcDbEntity
8
CUTOUTS
100
AcDbLine
10
-28.531827599214314
20
48.549355652982094
30
0
11
-26.50676478474729
21
45.041843969807033
31
0
0
ARC
5
116
100
AcDbEntity
8
CUTOUTS
100
AcDbCircle
10
-23.999999999999986
20
35.000000000000007
30
0
40
10.349999999999941
210
0
220
-0
230
1
100
AcDbArc
50
75.983607157289399
51
104.01639284270941
0
LINE
5
117
100
AcDbEntity
8
CUTOUTS
100
AcDbLine
10
-21.493235215252469
20
45.041843969806976
30
0
11
-19.468172400785662
21
48.549355652982143
31
0
0
ARC
5
118
100
AcDbEntity
8
CUTOUTS
100
AcDbCircle
10
-17.000000000000028
20
47.124355652982146
30
0
40
2.8499999999999748
210
-0
220
0
230
1
100
AcDbArc
50
-29.999999999999861
51
149.99999879258209
0
LINE
5
119
100
AcDbEntity
8
CUTOUTS
100
AcDbLine
10
-14.531827599214397
20
45.699355652982163
30
0
11
-16.556890413681273
21
42.191843969806996
31
0
0
ARC
5
11A
100
AcDbEntity
8
CUTOUTS
100
AcDbCircle
10
-23.999999999999986
20
35.000000000000007
30
0
40
10.34999999999995
210
0
220
-0
230
1
100
AcDbArc
50
15.983607157289724
51
44.016392842710083
0
LINE
5
11B
100
AcDbEntity
8
CUTOUTS
100
AcDbLine
10
-14.050125628933827
20
37.849999999999973
30
0
11
-10
21
37.849999999999973
31
0
0
ARC
5
11C
100
AcDbEntity
8
CUTOUTS
100
AcDbCircle
10
-10
20
35.000000000000007
30
0
40
2.8499999999999392
210
0
220
0
230
1
100
AcDbArc
50
-90.000000000001435
51
90
0
LINE
5
11D
100
AcDbEntity
8
CUTOUTS
100
AcDbLine
10
-10.000000000000071
20
32.15000000000007
30
0
11
-14.050125628933827
21
32.150000000000041
31
0
0
ARC
5
11E
100
AcDbEntity
8
CUTOUTS
100
AcDbCircle
10
-23.999999999999986
20
35.000000000000007
30
0
40
10.349999999999973
210
-0
220
0
230
1
100
AcDbArc
50
315.98360715728973
51
344.01639284271027
0
LWPOLYLINE
5
11F
100
AcDbEntity
8
CUTOUTS
100
AcDbPolyline
90
6
70
1
43
0.0
10
-53.527756813566398
20
2.4500000000000464
10
-56.472243186433531
20
2.450000000000002
10
-57.944486372867061
20
4.9999999999999645
10
-56.472243186433531
20
7.5500000000000007
10
-53.527756813566469
20
7.5500000000000149
10
-52.055513627132939
20
5.0000000000000355
0
LWPOLYLINE
5
120
100
AcDbEntity
8
PERIMETER
100
AcDbPolyline
90
8
70
1
43
0.0
10
-95.150000000000006
20
-0.14999999999998792
10
-2.8499999999999659
20
-0.15000000000000568
10
-2.8499999999999659
20
24.850000000000001
10
0.15000000000000568
20
24.850000000000001
10
0.15000000000000568
20
45.150000000000013
10
-2.8499999999999659
20
45.150000000000013
10
-2.8499999999999659
20
70.15000000000002
10
-95.150000000000006
20
70.15000000000002
0
ENDSEC
0
SECTION
2
OBJECTS
0
DICTIONARY
5
C
100
AcDbDictionary
3
ACAD_GROUP
350
D
3
ACAD_MLINESTYLE
350
17
0
DICTIONARY
5
D
100
AcDbDictionary
0
DICTIONARY
5
1A
330
C
100
AcDbDictionary
0
DICTIONARY
5
17
100
AcDbDictionary
0
ENDSEC
0
EOF
