0
SECTION
2
HEADER
9
$INSUNITS
70
4
9
$ACADVER
1
AC1014
9
$HANDSEED
5
FFFF
0
ENDSEC
0
SECTION
2
TABLES
0
TABLE
2
VPORT
5
8
100
AcDbSymbolTable
0
ENDTAB
0
TABLE
2
LTYPE
5
5
100
AcDbSymbolTable
70
2
0
LTYPE
5
14
100
AcDbSymbolTableRecord
100
AcDbLinetypeTableRecord
2
BYBLOCK
70
0
0
LTYPE
5
15
100
AcDbSymbolTableRecord
100
AcDbLinetypeTableRecord
2
BYLAYER
70
0
0
ENDTAB
0
TABLE
2
LAYER
5
2
100
AcDbSymbolTable
70
3
0
LAYER
5
50
100
AcDbSymbolTableRecord
100
AcDbLayerTableRecord
2
0
70
0
6
CONTINUOUS
0
LAYER
5
51
100
AcDbSymbolTableRecord
100
AcDbLayerTableRecord
2
CUTOUTS
70
0
62
1
6
CONTINUOUS
0
LAYER
5
52
100
AcDbSymbolTableRecord
100
AcDbLayerTableRecord
2
PERIMETER
70
0
62
5
6
CONTINUOUS
0
ENDTAB
0
TABLE
2
STYLE
5
3
100
AcDbSymbolTable
70
1
0
STYLE
5
11
100
AcDbSymbolTableRecord
100
AcDbTextStyleTableRecord
2
STANDARD
70
0
0
ENDTAB
0
TABLE
2
VIEW
5
6
100
AcDbSymbolTable
0
ENDTAB
0
TABLE
2
UCS
5
7
100
AcDbSymbolTable
0
ENDTAB
0
TABLE
2
APPID
5
9
100
AcDbSymbolTable
70
1
0
APPID
5
12
100
AcDbSymbolTableRecord
100
AcDbRegAppTableRecord
2
ACAD
70
0
0
ENDTAB
0
TABLE
2
DIMSTYLE
5
A
100
AcDbSymbolTable
0
ENDTAB
0
TABLE
2
BLOCK_RECORD
5
1
100
AcDbSymbolTable
70
2
0
BLOCK_RECORD
5
1F
100
AcDbSymbolTableRecord
100
AcDbBlockTableRecord
2
*MODEL_SPACE
0
BLOCK_RECORD
5
1B
100
AcDbSymbolTableRecord
100
AcDbBlockTableRecord
2
*PAPER_SPACE
0
ENDTAB
0
ENDSEC
0
SECTION
2
BLOCKS
0
BLOCK
5
20
100
AcDbEntity
100
AcDbBlockBegin
2
*MODEL_SPACE
0
ENDBLK
5
21
100
AcDbEntity
100
AcDbBlockEnd
0
BLOCK
5
1C
100
AcDbEntity
100
AcDbBlockBegin
2
*PAPER_SPACE
0
ENDBLK
5
1D
100
AcDbEntity
100
AcDbBlockEnd
0
ENDSEC
0
SECTION
2
ENTITIES
0
CIRCLE
5
100
100
AcDbEntity
8
CUTOUTS
100
AcDbCircle
10
12.124355682930743
20
6.9999999481274973
30
-5.8480998255495113e-14
40
1.5999999999999992
210
0
220
0
230
1
0
CIRCLE
5
101
100
AcDbEntity
8
CUTOUTS
100
AcDbCircle
10
-5.9897210863303899e-08
20
-14.000000000000002
30
-5.8480995814319098e-14
40
1.6000000000000003
210
0
220
0
230
1
0
CIRCLE
5
102
100
AcDbEntity
8
CUTOUTS
100
AcDbCircle
10
-12.124355623033537
20
7.0000000518725027
30
1.1696199406981421e-13
40
1.6000000000000014
210
0
220
0
230
1
0
CIRCLE
5
103
100
AcDbEntity
8
CUTOUTS
100
AcDbCircle
10
2.16333302218124e-16
20
-1.2490009027018496e-16
30
-9.9756422053526045e-30
40
10.350000000000001
210
0
220
0
230
1
0
LWPOLYLINE
5
104
100
AcDbEntity
8
CUTOUTS
100
AcDbPolyline
90
4
70
1
43
0.0
10
-9.8499999999999908
20
24.849999999999994
10
9.8500000000000174
20
24.849999999999987
10
9.8500000000000103
20
22.149999999999991
10
-9.8499999999999925
20
22.150000000000002
0
LWPOLYLINE
5
105
100
AcDbEntity
8
PERIMETER
100
AcDbPolyline
90
22
70
1
43
0.0
10
-20.150000432501368
20
33.150000000000006
10
-20.150000344679889
20
21.849999975518767
10
-17.150000344679889
20
21.8499999988342
10
-17.150000253749685
20
10.1499999988342
10
-20.150000253749688
20
10.149999975518762
10
-20.150000022832582
20
-19.562132036546068
10
-12.34999978734665
20
-27.362131968931308
10
-12.349999812310736
20
-24.149999940545641
10
-3.5999998123107382
20
-24.149999872542281
10
-3.5999998356261749
20
-21.149999872542278
10
3.6000001643738262
20
-21.149999816585229
10
3.600000187689262
20
-24.149999816585233
10
12.350000187689261
20
-24.149999748581877
10
12.350000212653347
20
-27.36213178890813
10
20.149999977167422
20
-19.562131721293362
10
20.149999746250312
20
10.150000001165736
10
17.14999974625032
20
10.149999977850307
10
17.149999655320116
20
21.849999977850306
10
20.149999655320112
20
21.850000001165743
10
20.149999567498632
20
33.150000320106329
10
14.949999990766196
20
33.149999999999999
10
-14.949999999999964
20
33.150000000000006
0
ENDSEC
0
SECTION
2
OBJECTS
0
DICTIONARY
5
C
100
AcDbDictionary
3
ACAD_GROUP
350
D
3
ACAD_MLINESTYLE
350
17
0
DICTIONARY
5
D
100
AcDbDictionary
0
DICTIONARY
5
1A
330
C
100
AcDbDictionary
0
DICTIONARY
5
17
100
AcDbDictionary
0
ENDSEC
0
EOF
